<svg xmlns="http://www.w3.org/2000/svg" xmlns:xlink="http://www.w3.org/1999/xlink" viewBox="0 0 712.64 655.84"><defs><style>.cls-1{fill:none;}.cls-2{clip-path:url(#clip-path);}.cls-3{fill:#fff;}.cls-4{fill:#fad3b1;}.cls-5{fill:#fea689;}.cls-6{fill:#232c44;}.cls-7{fill:#f2815c;}.cls-8{fill:#ebbd94;}.cls-9{fill:#485a7e;}.cls-10{fill:#36435e;}</style><clipPath id="clip-path" transform="translate(57.4 0)"><circle class="cls-1" cx="327.62" cy="327.62" r="327.62"/></clipPath></defs><g id="Layer_2" data-name="Layer 2"><g id="Layer_1-2" data-name="Layer 1"><g class="cls-2"><circle class="cls-3" cx="385.02" cy="327.62" r="327.62"/><path class="cls-4" d="M474.09,216.41a33.93,33.93,0,0,0-2.25-10.57,28.33,28.33,0,0,0-5.15-8.14c-3.72-4.19-8.46-7.49-13.27-10.45-.42-.51-.84-1-1.24-1.54a72.38,72.38,0,0,0-.33-14.11c-1.41-9.21-5.79-14.85-13.41-19.82-2.9-1.9-6.21-3.51-8-6.7-1.66-3-1-7.39-2.23-10.63a21.19,21.19,0,0,0-5.71-8.28c-8.27-7.54-18.48-6.14-28.35-9.33-10.47-3.39-12.66-14.76-24.26-16.82-5.61-1-11.22-.08-16.76.94-3.62.65-7.32,1.68-11,1.59-5.87-.14-7.43-3.09-11.52-6.35-11.75-9.4-27.28-3.9-38.71,4.76-13-4.75-27.41-4.32-39.74,2.4-6.41,3.48-11.51,8.7-17.21,13.13-7.3,5.64-15.6,6.77-23.34,11.08-12.08,6.72-13.91,22.78-21.59,33.25-6.14,8.34-13.12,16.11-15.14,25.74a27.82,27.82,0,0,0-5.6,14.39c-.82,7.7.67,16.37-2,23.77-1.3,3.63-4.8,5.61-6.12,8.67-2.44,5.7-3,12.07-.22,17.76,3.55,7.14,9.24,8.7,16.16,10.78,8.87,2.7,13.13,11.51,23.2,11,0,0,0,.09,0,.13,2.41,14.52,6,28.69,12.15,42.6,1,2.23,2,4.44,3.13,6.66a221.81,221.81,0,0,0,22.76,36.4c7.08,9.1,16.24,16,28.06,12.78a1.55,1.55,0,0,0,.58-.31c1,.86,2,1.68,3,2.46,27.72,20.79,64.41,20,97,16.67,14.06-1.43,28.88-3.73,40.69-12.25,10.92-7.89,3.57-11.45,8.14-23.92,3.22-8.8,7.41-18.39,11.75-28.33,1.7-12.18,6-23.55,9.08-35.43,1.44-5.61,1.34-14.29,5.13-19.09,3.08-3.91,7.63-4,11.66-6.14a252.87,252.87,0,0,0,22.42-13.66,20.45,20.45,0,0,0,4.25-9.7c1.12-1.46,1.77-3.52,1.74-6.5C481.8,228.48,477.89,222.49,474.09,216.41ZM231.32,341.83c-2.56-3.94-5-8-7.3-12,5.3,3.83,11.77,6.88,15.87,10.89,8.69,8.5,15.11,18.91,23.7,27.39C248.38,370.67,238.55,353,231.32,341.83Z" transform="translate(57.4 0)"/><path class="cls-5" d="M424.42,331.86c.13-1.14.25-2.25.37-3.39.35-3.4.68-6.85,1-10.3.18-1.95.34-3.89.5-5.86v0c.42-4.88.81-9.78,1.17-14.67v0c.35-5,.69-9.9,1-14.79a.29.29,0,0,1,0-.16c2.62-43,2.87-81.11,1.31-84.4-6.45-13.61-16.7-19.81-28.42-27.42q-3-2-6.2-4.11c-1.67-1.15-3.39-2.37-5.1-3.65-12.05-9-28.4-10-42.89-9.46-33.65,1.3-66.31,4.72-95.19,23.66a100.49,100.49,0,0,0-11.42,8.62c-1,.89-2,1.8-3,2.75A59.65,59.65,0,0,0,227,202.31a37.78,37.78,0,0,0-4.58,16.24v0c-.56,7.84.49,15.8-.47,24.74,0,.27-.06.56-.07.89-.45,6.73.65,24.75,2.78,45.9.11,1,.21,2.1.31,3.15h0c.38,3.79.8,7.67,1.26,11.58.61,5.26,1.26,10.57,2,15.84.63,4.78,1.3,9.54,2,14.19,0,.3.09.6.13.89.15,1,.3,2,.45,3,.5,3.23,1,6.39,1.56,9.46.48,2.84,1,5.6,1.5,8.25,0,.08,0,.16,0,.24,2.07,10.7,4.27,19.76,6.53,25.69a134,134,0,0,0,22.81,39.19c13.51,15.87,30.81,27.47,51,30.94a77.1,77.1,0,0,0,24.85.19A110.41,110.41,0,0,0,354,449.31c3.23-1,6.39-2.07,9.44-3.32,10.28-4.17,19.1-10.42,27.36-17,12.45-10,20.74-36.21,25.09-51.17C419,366.89,423.82,337.57,424.42,331.86Z" transform="translate(57.4 0)"/><path class="cls-5" d="M166,573.33a1.92,1.92,0,0,0,1.79,1.57c-.67-.08,5.6,10.38,6,10.7,5.68,5.3,14.08,8.86,21,12.17a194.53,194.53,0,0,0,51,16.36c18.1,3.15,36.24,3.14,54.33,1.76,1.36-.09,2.73-.21,4.11-.33,17.82-1.57,35.61-4.36,53.3-6.7,38.28-5,77.08-9,114.43-19.1,5.72-1.54,25.47-4.25,20.18-14.92-1.72-3.51-6.18-5.22-9.55-6.48-7.65-2.91-15.3-5.4-22.63-9.16-15.26-7.82-23.64-18.1-35.81-30.19a170.72,170.72,0,0,1-11.86-12.92c-.85-1-1.68-2.05-2.48-3.12-6.36-8.25-11.66-17.5-13.06-26.72-.28-1.87-.51-3.8-.68-5.72-1.63-16.65.06-34.76.52-51.56q.09-3.21.11-6.35c.05-13.21-.57-26.65.26-39.84,0,0,.27-4.2.39-6.29.17-2.85-4.25-3.5-4.42-.63-.11,1.56-.19,3.11-.29,4.66-7.81-2.89-24.44-2-33.87-.69-4.19.6-8.09,1.23-11.33,1.67-14,1.86-29.8,3.73-44.91,7.45-13,3.16-31.34,7.69-41.84,14.7-.11-4-.21-8.11-.34-12.17-.08-2.86-4.51-2.28-4.43.58.15,4.92.27,9.84.41,14.78-.35.26-.7.49-1,.77a2.3,2.3,0,0,0,1.14,4c.48.07.81,3.8,1,9.65a2.08,2.08,0,0,0,0,.25c0,1,.06,2.14.08,3.29,0,.44,0,.86,0,1.3s0,1.19,0,1.8c0,1.19,0,2.42.06,3.7a.72.72,0,0,0,0,.21c0,1.82,0,3.7.05,5.63a1.08,1.08,0,0,0,0,.18c0,3.09,0,6.31,0,9.59,0,.25,0,.5,0,.76,0,2.93,0,5.89,0,8.84,0,.17,0,.35,0,.53,0,2,0,4,0,6s0,4.1,0,6c0,.66,0,1.32,0,2,0,4.76-.1,9.14-.14,12.83-.05,5.28-.1,9.1-.1,10.54a18.83,18.83,0,0,1-.4,4.85c-1.37,5.25-5.1,10.63-9.66,15.72q-1.35,1.47-2.76,2.94c-6,6.12-12.74,11.67-17.46,15.92-19.08,17.13-35.45,30.52-61,34.72C163.45,569.34,163.73,573.09,166,573.33Z" transform="translate(57.4 0)"/><path class="cls-6" d="M386,302.11a37,37,0,0,0,0-11.67,10.51,10.51,0,0,0-2.44-5c-3.82-3.88-8.25.06-9.22,4-1.27,5.13-1,16.29,3.85,18.83C383.22,310.89,385.17,307.18,386,302.11Z" transform="translate(57.4 0)"/><path class="cls-6" d="M279.88,303.68a36.61,36.61,0,0,0-.24-11.41,10.4,10.4,0,0,0-2.5-4.85c-3.81-3.7-8.05.25-8.92,4.13-1.12,5-.58,15.93,4.18,18.31C277.33,312.32,279.16,308.65,279.88,303.68Z" transform="translate(57.4 0)"/><path class="cls-3" d="M293.6,380.16c.55.08,3.38,5.19,3.95,5.77a26.34,26.34,0,0,0,5.54,4.29c8.14,4.95,20.35,8.12,29.28,7.52,22.18-1.5,30.25-10.68,33-15.77a13.81,13.81,0,0,0,1.4-3.39Z" transform="translate(57.4 0)"/><path class="cls-7" d="M363.39,446a6.43,6.43,0,0,0-2.34-.31c-1.82,0-4.78,2-7.1,3.63a28.51,28.51,0,0,1-2.77,1.78c-3.4,1.64-10.4,3.55-14.11,4.33-8,1.69-15.61,0-22.91-2.94-3-1.17-5.92-2.56-8.78-4-15.62-7.77-36.74-23.08-48.49-35.16l.7,58.06a99.75,99.75,0,0,0,18.85.14A60.7,60.7,0,0,1,304.6,475c3.81,1.48,7.08,3.72,11.37,2.3,2.25-.73,2.81-2.23,4.74-3.4,7.41-4.51,6.23-3.58,12.39-4.07a41.75,41.75,0,0,0,28.22-14.59C363.48,452.7,367,447.31,363.39,446Z" transform="translate(57.4 0)"/><path class="cls-5" d="M446.86,306.77c-.21-6.32-2.53-14.16-7.18-19.2a16.63,16.63,0,0,0-3.93-3.18,12.94,12.94,0,0,0-5.05-1.69,11.81,11.81,0,0,0-2.22-.05l-.18,0c-4.63.45-8.81,3.56-12.62,7.06-1.82,1.67.49,4.77,2.31,3.1,2.64-2.41,3.66-3.34,5.5-3.53-3,6.33-2.51,15.79-3.83,21.92-1.36,6.35-2.72,12.6-3.52,18.93a76.58,76.58,0,0,0-.52,15.25.65.65,0,0,0,.06.24c-.66.08-1.31.16-2,.2-2.49.2-2,4,.49,3.84a60.57,60.57,0,0,0,8.26-1.12c5.83-1.34,10.69-4,13.79-10.21C440.81,329.31,447.2,317.24,446.86,306.77Z" transform="translate(57.4 0)"/><path class="cls-5" d="M239.76,353.48l-2-.2a1.14,1.14,0,0,0,.06-.25,76.71,76.71,0,0,0-.27-14.31c-.7-6.66-2.07-13.21-3.44-19.91-1.25-6.15-.68-15.62-3.58-22,1.83.21,2.82,1.15,5.44,3.59,1.83,1.71,4.16-1.38,2.35-3.06a35.54,35.54,0,0,0-7.2-5.46,14,14,0,0,0-6.52-1.81,11.29,11.29,0,0,0-2.54.28,13.49,13.49,0,0,0-3.74,1.44c-3.84,2.15-6.66,6-8.54,10.24a33.85,33.85,0,0,0-2.81,12c-.46,10.45,5.83,22.58,10.3,31.65,3.53,7.22,9.43,9.78,16.57,10.91a.27.27,0,0,0,.17,0c1.66.27,3.39.46,5.19.62a.11.11,0,0,0,.1,0C241.72,357.43,242.19,353.69,239.76,353.48Z" transform="translate(57.4 0)"/><path class="cls-7" d="M433.91,319.68c.07-3.67-2.58-6.29-4.3-9.27q.69-5.7,1.37-11.39c.3-2.46-3.52-3-3.82-.54q-.71,5.79-1.4,11.59a1.54,1.54,0,0,0,.09,1.49c1.16,2.11,3.25,4.21,3.94,6.52,1.19,4-3.52,8.37-5.62,11.21-1.48,2,1.55,4.4,3,2.4C429.75,328.24,433.82,324.25,433.91,319.68Z" transform="translate(57.4 0)"/><path class="cls-7" d="M230.94,335.6c-2.71-2.6-5.71-5.48-5.17-9.56.39-3,2.6-5.53,4.26-8a1.85,1.85,0,0,0,.32-1,1.73,1.73,0,0,0,0-.88,50.21,50.21,0,0,0-4.66-12.31c-1.17-2.16-4.76-.73-3.58,1.46a46.29,46.29,0,0,1,4.34,11.11c-2.26,3.25-4.87,6.68-4.74,10.79.15,4.78,3.57,8.28,6.82,11.4C230.34,340.36,232.72,337.31,230.94,335.6Z" transform="translate(57.4 0)"/><path class="cls-4" d="M301.16,258.37c-11.76-10.89-40-2.84-51.59,4.58-3.5,2.24-8.38,7.58-2.34,8.73,4.09.77,8.77.18,12.89,0,7.44-.32,15-1.49,22.41-1.49,5.24,0,15.82,1.61,20-2.6C305.37,264.67,303.94,261,301.16,258.37Z" transform="translate(57.4 0)"/><path class="cls-4" d="M352.07,266.79c4.07,4.28,14.68,2.84,19.92,2.93,7.44.13,14.95,1.42,22.39,1.86,4.11.25,8.78.91,12.88.21,6.06-1.05,1.27-6.47-2.2-8.77-11.45-7.61-39.57-16.12-51.5-5.43C350.73,260.12,349.25,263.83,352.07,266.79Z" transform="translate(57.4 0)"/><path class="cls-7" d="M345.68,326.5c-1.62-8.31-3.59-16.52-5.77-24.69-.64-2.4-4.26-1-3.62,1.36,2.71,10.13,5,20.34,6.82,30.66,1,5.73,3.74,14.86-2.05,19.38-4,3.13-10.6,3.58-15.36,4.2-2.47.32-2.12,4.17.35,3.85,9.6-1.24,21.46-3.14,22.51-14.68C349.13,340.22,346.89,332.71,345.68,326.5Z" transform="translate(57.4 0)"/><path class="cls-4" d="M445.62,261.3c-1.08.27-13.72,21.3-14.92,21.39-13.44,1.07-8.78-20.07-26.35-32.36-7.67-5.37-21.59-3.75-32.19-7.93-6.33-3.61-9.57-9.34-12.14-15.87a23.44,23.44,0,0,0-2.3-4.39c-2.35-3.5-5.31-5.86-8.58-9.58s-4.92-8-10-9.8c-3.33-1.21-8-.67-11.61-1a51.93,51.93,0,0,1-13.23-3.06C301.92,194,295,185.06,290.58,174.45c-3.5,5.88-7.51,11.4-12.67,15.28-9.64,7.26-23.47,8.13-30.72,18.53-7.51,10.76-5.16,25.18-9.93,37-1.78,4.38-4.61,8.08-7.18,12-.2,1.21-.38,2.45-.57,3.66-1.27,8.92-1.86,17.94-2.29,27a6.9,6.9,0,0,1-2.46,3.67c-3,1.31-5-5.16-5.3-7.06-.55-3.36,0-6.84.43-10.2,0-2.55,0-5.1.16-7.67q.07-1.31.18-2.61c-1,.73-2.65.6-2.93-1-2.14-12.4-6.81-26.7-4.51-39.36,1.81-10,7.56-18.3,14-25.9a49.6,49.6,0,0,1,7.4-16.81c9-12.92,23.4-20.55,36.61-28.36s24.72-16.67,39.7-8.16c11-1.3,22.52-.47,33.4,0,14,.58,28.38,1.24,42.16,4a69.64,69.64,0,0,1,32.47,15.92c4.34,3.71,10.54,8.34,13.53,13.35,2.79,4.68,1.89,10.08,4.36,14.95s6.27,8.75,7.85,14.26c1.54,5.36,1.49,11,1.39,16.59a58,58,0,0,1-2.3,16c-1.83,6.17-2,11.06.32,17.18C444.31,258.34,445,259.79,445.62,261.3Z" transform="translate(57.4 0)"/><path class="cls-8" d="M292.92,142.69c-.25-4.1-1.94-7.8-3-11.7-2.34-8.35-.83-14.4,3.19-22,1.16-2.19-2.16-4.18-3.33-2-4.5,8.5-6.46,15.51-3.59,25,2.48,8.16,2.63,14.27-1.29,22.16-1.89,3.79-1.86,7.19-1.57,11.44.17,2.46,4,2.51,3.87,0C286.56,156.88,293.44,151.2,292.92,142.69Z" transform="translate(57.4 0)"/><path class="cls-8" d="M266.43,165.55c-16.79,5-32.61,14.49-40.54,30.72-4.95,10.13-3.69,21.47-10.49,30.81-4.53,6.21-9.6,9.64-10.33,17.75-.22,2.48,3.64,2.49,3.86,0,.83-9.15,9.4-13.2,13.23-20.7,3.26-6.41,2.77-13.92,5-20.67,5.93-18.31,22.76-29,40.32-34.2C269.8,168.58,268.82,164.84,266.43,165.55Z" transform="translate(57.4 0)"/><path class="cls-8" d="M251.38,155.3a39.85,39.85,0,0,0-17.49,8.59c-4.67,3.77-11.07,8.87-12.78,14.85-.69,2.4,3,3.45,3.72,1.06,1.47-5.15,8.24-10.39,12.29-13.55A35.78,35.78,0,0,1,252.38,159C254.81,158.55,253.82,154.82,251.38,155.3Z" transform="translate(57.4 0)"/><path class="cls-8" d="M407.05,197.92c-10.11-10.14-27.37-12.82-34.53-25.22-5.89-10.21-10.89-21.18-22.21-26.45-11-5.11-25.81-7.19-37-2.26-2.27,1-.34,4.34,1.92,3.35,11.93-5.24,31.69-1.26,41.06,7.68,7.24,6.92,9.67,16.39,15.57,24.09,5.08,6.64,14.12,8.84,21.07,13,12.86,7.66,24,20.13,20.6,36.19-.52,2.43,3.2,3.5,3.72,1.06C419.74,217.55,415.46,206.34,407.05,197.92Z" transform="translate(57.4 0)"/><path class="cls-8" d="M415.49,190.26c-2.12-1.32-4.09,2-2,3.32,14.94,9.32,26.13,24.81,20.44,43.12-.74,2.38,3,3.43,3.72,1.06C443.85,217.87,431.93,200.51,415.49,190.26Z" transform="translate(57.4 0)"/><path class="cls-9" d="M7.54,653.11q7.65,1.47,15.33,2.73H578.43c.77-.12,1.54-.22,2.3-.35q11.5-1.82,22.94-4,15-2.94,29.89-6.71-3.31-28.34-7.94-56.55c-1.86-11.45-.79-30.63-12.31-37.1-15.15-8.52-32.91-14.12-48.9-20.94-28.74-12.28-54.35-12-86.12-12.34-37.1-.42-30.75,17.65-111.6,25.62-38.15,3.76-85.56-1.35-123-10.25-17-4-32.23-19.39-49.64-16-18.1,3.54-36.18,7.17-54,12-33.63,9.1-52.69,23.43-83.88,39.51C14.38,590.26-25.9,615.79-57.4,636.76c4.89,1.56,9.8,3.07,14.74,4.49C-26.13,646-9.36,649.89,7.54,653.11Z" transform="translate(57.4 0)"/><path class="cls-10" d="M450.44,536.81c-16.78,11.36-36.36,15.57-56.17,18.16-19.56,2.55-39.28,4.5-59,5.41-40.65,1.87-82.06-1.77-118.48-21.27-2.26-1.2-4.27,2.23-2,3.44,37,19.82,79.13,23.71,120.49,21.8,20.86-1,41.77-3,62.46-5.87,19.35-2.67,38.34-7.15,54.71-18.24C454.56,538.81,452.57,535.37,450.44,536.81Z" transform="translate(57.4 0)"/></g></g></g></svg>