<svg xmlns="http://www.w3.org/2000/svg" xmlns:xlink="http://www.w3.org/1999/xlink" viewBox="0 0 654.87 656.05"><defs><style>.cls-1{fill:none;}.cls-2{clip-path:url(#clip-path);}.cls-3{fill:#fff;}.cls-4{fill:#ffa894;}.cls-5{fill:#fad3b1;}.cls-6{fill:#ebbd94;}.cls-7{fill:#232c44;}.cls-8{fill:#f7886d;}.cls-9{fill:#f2e7e1;}.cls-10{fill:#3b2b2b;}</style><clipPath id="clip-path" transform="translate(0 0)"><circle class="cls-1" cx="327.62" cy="327.62" r="327.62"/></clipPath></defs><g id="Layer_2" data-name="Layer 2"><g id="Layer_1-2" data-name="Layer 1"><g class="cls-2"><path class="cls-3" d="M327.62,655.24c175.74,0,319.14-138.36,327.25-312.09V312.09C646.76,138.36,503.36,0,327.62,0,146.68,0,0,146.68,0,327.62S146.68,655.24,327.62,655.24Z" transform="translate(0 0)"/><path class="cls-4" d="M166.75,648.75c.12,1.13,5.5-41.59,7.44-64.3,1.73-20.19,2-40.52,2.64-60.77q.51-15,1-30c.22-6.74,7.56-11.29,5.15-17.71-3.59-9.55-6.09-18.22-28.27-10.68a103.94,103.94,0,0,0-33.84,18.78c-11.52,9.51-27.83,31.59-35.77,44.33-19,30.55-30.59,63-47.81,94.64-3.65,6.69-9.41,17.84-16.27,31.43H163.71A46.5,46.5,0,0,0,166.75,648.75Z" transform="translate(0 0)"/><path class="cls-5" d="M465,209.58c1.48-13.06-1.44-27.08-3.32-40-1.64-11.15-1.91-26-8.2-35.74-5.24-8.13-15.71-14.61-24.06-19.16-18.43-10.06-38.89-8.36-58.61-4-14.3-16.32-40.39-16.57-59.88-6.19-8.59,4.56-11.9.33-21.85,1.24-6.35.6-21.86,2.49-27.52,5.76-11.43,6.65-19.74,18.84-25.43,30.89-14.84,1.43-25.11,7.4-29,22.88-2.64,10.44.14,25.12-1.85,35.66-1.76,9.25-5.51,18.16-5.44,27.7,0,9.7,4.34,18.28,7,27.43a138.23,138.23,0,0,1,5.49,40.24c-.23,8.65.9,17.1,5.4,24.64a37.11,37.11,0,0,0,6.51,8.14c4.49,4.23,28.1,31.38,28.1,31.38s8.7-16.8,16.29-15.74c17.14,2.42,36.28-.26,53.59-.55,19.53-.31,37.1-1.89,54.39,8.74,2.4,1.48,4.77,3,7.2,4.42a44.32,44.32,0,0,0,8.72,4c6.95,2.16,10.72.37,17.38-.39,14-1.58,6,2,13.66,5.85,2.92,1.47,5.83.92,8.79,0,.87-.28,1.77-.58,2.66-.94,8.32-3.24,17-9.81,18.15-18.9,1-7.47-2.75-14.72-2.13-22.25.77-9.46,6.92-14.87,10.19-23.1,2.41-6.17,1.54-11.91-.33-17.58,6.1-9.31,6.32-25.87,3.1-33.94-3.1-7.8-5.68-13.62-3.56-22.52C461.84,221.52,464.26,215.84,465,209.58Z" transform="translate(0 0)"/><path class="cls-6" d="M425.12,328.73c-6.06-8.09-10.9-15.19-13.53-25.2a159.76,159.76,0,0,1-4.53-29.26c-.2-2.64-4.28-2.21-4.08.43.65,8.88,1.58,18.57,3.84,27.78a2.6,2.6,0,0,0-.38.27c-9.75,10.19-12.76,24.17-16.82,37.25-1.71,5.54-4,11.41-5.86,17.39a44.32,44.32,0,0,0,8.72,4c6.95,2.16,10.72.37,17.38-.39,14-1.58,6,2,13.66,5.85,2.92,1.47,5.83.92,8.79,0,.87-.28,1.77-.58,2.66-.94.14-.86.26-1.66.33-2.35C436.76,350.76,432.74,338.89,425.12,328.73Z" transform="translate(0 0)"/><path class="cls-4" d="M265.71,654.5v1.55H382.46V654.5H534.59c4.24-36.39,3.47-73.15,0-110-1.2-12.71-2.65-25.39-4.22-38.07-1-8.16-.33-19.56-8-24.82-8.72-6-24.14-5.18-34.11-6.43-8.61-1.12-17.21-2.15-25.85-3.09q-5.74-.66-11.49-1.26l-5.51-.56c-1.92-.2-3.83-.38-5.74-.56s-4-.36-5.94-.51c-6-.52-12-.95-18-1.35-29.8-1.91-59.68-2.49-89.52-3.8-23.36-1-55.55-1.53-87.09-1.73-.31,0-.62,0-.93,0-10.81,0-21.53-.09-31.76-.09h-2.3c-3.67,0-7.27,0-10.8,0h-9.2a36,36,0,0,1-2.39,23.24C174,501.51,167.16,518,161,534.71c-3.1,8.41-6,16.88-8.89,25.38q-2,6-4,12.06c-.65,2-1.29,4-1.95,6.05l-.08.24c-6.17,19.62-12.2,39.3-18.62,58.85l5.68,17.21Z" transform="translate(0 0)"/><path class="cls-4" d="M218.74,513.57q14.23,23.31,30.52,45.24A645,645,0,0,0,293.21,612a2.13,2.13,0,0,0,2.87.44q6.26-4.49,12.45-9c.57-.41,1.13-.82,1.7-1.25q12.39-9,24.63-18.24t24.2-18.44c.94-.69,1.86-1.41,2.77-2.14q33.82-26.13,66.68-53.56,14.25-11.91,28.34-24a2.09,2.09,0,0,0-.88-3.68l-19.81-5.54L430.61,475c-3.25-.92-6.52-1.81-9.77-2.73-6.88-1.92-16.38-3.3-23.85-6.73a27.68,27.68,0,0,1-3.62-1.93c-4.81-3-8.12-7.3-8.25-13.84,0-.31,0-.58,0-.89v-.08c-.34-18.68.07-37.38.88-56.09,0-.12,0-.27,0-.39q.47-10.32,1.07-20.6a2.1,2.1,0,0,0-2.25-2.39c-20.48,3.13-41.25,2.65-61.84,4.86A332.93,332.93,0,0,0,268.38,385q-.51-16.8-1.13-33.57c-.09-2.65-4.19-2.2-4.08.43q1.66,45.9,2.69,91.85c-4.29,4.9-10.24,8.74-16.85,11.82-1.26.58-2.52,1.13-3.81,1.65-2.86,1.17-5.81,2.22-8.76,3.16-5.59,1.78-11.27,3.2-16.53,4.41-2.74.63-5.36,1.19-7.82,1.74l-.82.17c-.93.2-1.82.39-2.68.59-3.83.85-10.4,1-11.38,5.78-1.28,6.32,8.64,18.64,11.72,24.05C212.11,502.61,215.36,508.1,218.74,513.57Z" transform="translate(0 0)"/><path class="cls-4" d="M415.46,193.2c-6.37-6.53-33-7.71-41.14-8.17-13.73-.78-27.55-.54-41.3-.46-31.21.18-62.31,1.81-92.88,8.47a3,3,0,0,0-2.28,3.27,2.19,2.19,0,0,0-1,1.64c-2.72,39-5.47,109.46,6.13,152.5,6.3,23.34,25.09,51.57,44.26,66.17,35.86,27.31,77.66,3.71,101.69-27.27,28.57-36.82,31.49-85.88,32.13-130.86.18-12.28-.11-24.57-.76-36.84C419.89,213.66,421.55,199.44,415.46,193.2Z" transform="translate(0 0)"/><path class="cls-7" d="M380.24,285.46a35.93,35.93,0,0,0,.51-11.27,10.14,10.14,0,0,0-2.14-4.95c-3.52-3.91-8-.28-9.07,3.49-1.44,4.9-1.63,15.68,2.91,18.33C377.16,293.82,379.21,290.32,380.24,285.46Z" transform="translate(0 0)"/><path class="cls-7" d="M283.36,283.2a35.63,35.63,0,0,0,.88-11.13,10.05,10.05,0,0,0-2-5c-3.35-4-7.86-.54-9.08,3.15-1.58,4.8-2.12,15.46,2.29,18.24S282.18,288,283.36,283.2Z" transform="translate(0 0)"/><path class="cls-8" d="M291.64,426.1c3.94,5.35,8.27,6.6,14.48,7.12,9.88.81,17.78,6.39,27.37,7.89,6.58,1,12.5-1.79,19-2.06,5.12-.22,10,1.7,15.11,1.74,7,.06,12.47-2.52,17.4-6.25,0-13.94.39-27.89,1-41.84-4,3.47-26.08,25.11-46.86,31.05-18.51,5.29-38.52-3-53.37-13.42A30.48,30.48,0,0,0,291.64,426.1Z" transform="translate(0 0)"/><path class="cls-5" d="M282,241.65c-8.09.8-16.29,2.44-23.46,6.17a59.09,59.09,0,0,0-5.2,3.07c-1.34.9-1.07,3.57.75,3.71,11.6.87,22.89-1,34.45-1.59,3.92-.21,14.58,2,16.49-3.62,3.1-9.24-12.41-8.49-17.49-8.18C285.74,241.32,283.89,241.46,282,241.65Z" transform="translate(0 0)"/><path class="cls-5" d="M370.37,242.37c-5.09-.24-20.6-.76-17.37,8.42,2,5.64,12.61,3.24,16.54,3.39,11.57.46,22.88,2.14,34.47,1.09,1.82-.16,2.05-2.84.69-3.71a53.29,53.29,0,0,0-5.24-3c-7.23-3.62-15.44-5.15-23.55-5.84C374.06,242.57,372.21,242.45,370.37,242.37Z" transform="translate(0 0)"/><path class="cls-3" d="M289.94,355.82s3.43,11.28,26,14.06c27.51,3.38,36.28-10.89,36.28-10.89Z" transform="translate(0 0)"/><path class="cls-8" d="M325.26,286.17c.33-2.61-3.72-3.29-4.05-.67a132.12,132.12,0,0,1-5.29,23.65c-1.52,4.77-4.18,9.94-4.48,15-.62,10.33,6.75,11.12,14,15.68,2.21,1.39,4.82-1.78,2.58-3.19s-5.43-2.15-7.44-3.65c-8.7-6.51-3.22-15-.94-22.17A137.92,137.92,0,0,0,325.26,286.17Z" transform="translate(0 0)"/><path class="cls-4" d="M433.81,280.76c-5-15.16-14.87-13.76-24.32-3.25-1.77,2,1.42,4.54,3.19,2.58.56-.63,1.37-1.68,2.24-2.7a196.61,196.61,0,0,1-9.05,31c-2.18,5.74-7.29,15.42-4.95,21.79,3.48,9.46,21.22-6.18,24.95-9.62,4.57-4.22,10.38-9.82,11.23-16.27C438,297.26,436,287.48,433.81,280.76Z" transform="translate(0 0)"/><path class="cls-4" d="M214.05,293.45c.21,6.51,5.44,12.66,9.57,17.31,3.37,3.79,19.48,21.11,23.88,12,3-6.11-1.16-16.25-2.77-22.18a196.15,196.15,0,0,1-5.94-31.76c.77,1.1,1.47,2.23,2,2.91,1.56,2.13,5-.12,3.42-2.25-8.37-11.39-18.05-13.76-24.52.83C216.8,276.82,213.83,286.35,214.05,293.45Z" transform="translate(0 0)"/><path class="cls-8" d="M235.66,282c-.16-3.3-.33-6.6-.49-9.9-.14-2.63-4.21-2.2-4.08.43.22,4.48,1.44,10.15-.12,14.36-.93,2.49-3.21,4-3.93,6.57-1.4,5,2.2,10.2,6.06,13,2.13,1.55,4.72-1.63,2.58-3.18a10.94,10.94,0,0,1-4.44-5.58c-.62-3,.25-5.15,2.63-6.51.64-.89,1.47-1.37,1.89-2.42C236.51,286.86,235.76,283.85,235.66,282Z" transform="translate(0 0)"/><path class="cls-8" d="M420.5,278c-.74,4.88-2.93,11.53-2.47,16.47.35,3.8,6.57,12.38-2.2,13.16-2.63.23-2.21,4.31.43,4.08,5.4-.48,8.68-5.21,8.23-10.53-.21-2.42-1.83-3.88-2.42-6-.48-1.78.77-5.12,1.06-7.06l1.41-9.41C424.93,276,420.89,275.36,420.5,278Z" transform="translate(0 0)"/><path class="cls-9" d="M382.46,656.05V654.5H517.32c-5.56-9.19-10.79-18.52-13.16-28.84-4.69-20.35-27.35-59-28.63-80.15a190.86,190.86,0,0,0-2.9-23.43c-4-21.79-10.4-36-10.21-48.93,0-.35,0-.73,0-1.1q-5.76-.66-11.49-1.24c-1.84-.21-3.69-.39-5.52-.58s-3.82-.38-5.74-.56c-.1.26-.23.55-.33.81a68.79,68.79,0,0,0-3.68,13.92c-1.16,6.45-1.85,13.28-2.63,19.61-.85,7-1.81,13.34-3.57,18a74.73,74.73,0,0,1-3.5,7.84c-3.91,10.93-10.31,21.53-17,30.31-9.21,12.19-21.54,21.6-30.68,33.87-5.05,6.76-8.1,14.58-12.68,21.63-4.75,7.25-10.35,13.87-15.45,20.86-4.33,6-7.8,13-11.78,19.56Z" transform="translate(0 0)"/><path class="cls-9" d="M265.71,656.05h50.93c-1.1-2.48-2.14-5-3-7.6-2.71-8.15-6.13-15-11.9-21.46-8.69-9.68-19.49-17.52-26.21-28.86-3.75-6.33-6.92-12.86-11.21-18.86A123.13,123.13,0,0,0,250.48,563c-7.57-7.48-18.95-20.65-28.41-31.91-9.17-10.92-16.53-20.09-17-20.64-5.61-7.25-7.17-29.79-10.89-48.29-10.41.08-24.57,0-27.1-.2,0,.08,0,.19,0,.28-2.71,16.34-8.64,33.14-13.9,47.45-3.66,10-18.13,53-28.44,85.49-.36,1.09-.7,2.2-1,3.26-5.05,16.09-8.9,29.08-9.6,33.3a140.71,140.71,0,0,0-1.71,16.33c-.36,2.12-.68,4.25-1,6.39H265.71Z" transform="translate(0 0)"/><path class="cls-3" d="M382.46,656.05V654.5H389c2.29-14.37,2-28.61,1.44-43.82,6.79,5.15,14.51,8.48,22.06,12.59,6.39,3.46,10.32,7.66,15.76,12.22,4.39,3.67,8.93,5.1,14.47,6.89,11.64,3.78,23.65,8.49,35.86,12.12h37.09c-7.58-21.13-20.84-37.79-38.31-51.89-4.11-3.3-8.29-6.53-12.19-10a76.11,76.11,0,0,1-8.24-8.51c-2.17-2.69-3.73-8.32-6.23-9.95-1.65-1.07-2.18-.89-4.41-1.43-7.44-1.86-13.15-4.95-17.7-10.9C445,551.51,462,540.32,472,523.29c.23-.41.46-.82.67-1.22-4-21.77-10.39-36-10.2-48.91a239.56,239.56,0,0,0-26.76,11.23c-1.16,6.45-1.84,13.28-2.62,19.63-.86,7-1.82,13.34-3.57,18a83.65,83.65,0,0,1-3.51,7.83c-3.91,10.93-10.32,21.52-17,30.31-9.22,12.19-21.55,21.61-30.7,33.87-5,6.76-8.09,14.59-12.68,21.62-4.73,7.26-10.36,13.87-15.44,20.87-4.33,6-7.8,13-11.78,19.56Z" transform="translate(0 0)"/><path class="cls-3" d="M209.13,630.75c19.19,2.14,38.59-.16,56.45-7.69,3.91-1.64,7.72-4.24,11.77-5.46,4.27-1.27,7.06-.1,10.5.11-6.32-6.84-12.83-13.53-17.16-21.88-3-5.87-5.64-11.86-9-17.56-22.87,10.32-44.81,25.29-54,49.58A2.08,2.08,0,0,0,209.13,630.75Z" transform="translate(0 0)"/><path class="cls-3" d="M153.8,643.89a188.09,188.09,0,0,1,12.66-24.46c7.16-11.38,19.73-21.4,24.38-34,2.35-6.37,2.3-13.9-5.77-13.52-14.47.69-28.9,8.5-40.74,16.13-8.42,5.4-16,8.76-25.77,10.45-5,16.08-8.9,29.07-9.59,33.3a138.43,138.43,0,0,0-1.72,16.32c-.36,2.14-.68,4.28-1,6.43h41.67C150.49,651.38,152.05,647.82,153.8,643.89Z" transform="translate(0 0)"/><path class="cls-3" d="M252.14,493.08c1.23,19.47,7.37,37,16,54.36,4.36,8.81,8.75,17.65,14.24,25.82a246.79,246.79,0,0,0,16.37,21c3,3.58,6.05,6.87,9.78,9.17a21.82,21.82,0,0,0,7.7,3.09,29.65,29.65,0,0,0,18.94-2.8c14.89-7.47,21.76-23.85,26.25-38.94.14-.47.29-1,.41-1.42,4.81-16.15,9.21-32.44,13.73-48.71,7.8-16.07,15.11-32.37,21.43-49.11a27.68,27.68,0,0,1-3.62-1.93c-4.23,11.28-8.93,22.33-14,33.26q-4.47,8.11-9.51,15.9c-7.95,12.21-17.85,24-31.26,30.43-8.88,4.22-17.26,4.54-26.53,1.45-8.33-2.81-16.68-6.31-23.88-11.37-13.82-9.73-22.58-24.74-30.93-39a1,1,0,0,0-.41-.37,245.49,245.49,0,0,1-7.72-37.79,1.92,1.92,0,0,0-.16-.58c-1.26.58-2.52,1.13-3.81,1.65a251.79,251.79,0,0,0,7,35.54A.89.89,0,0,0,252.14,493.08Zm35.1,42c7.38,5.17,15.87,8.72,24.4,11.56,8.09,2.73,15.53,3.21,23.61.22,13.89-5.16,24.52-16.08,32.94-27.92.82-1.18,1.62-2.4,2.45-3.6q-4.15,8.48-8.45,16.88c-9.17,18-23.69,54.36-49.8,40-26.82-14.66-43.31-41.52-53-70.46C266.85,514.3,275.16,526.61,287.24,535.06Zm-19-3.3c10.41,18,28.17,40.81,48.92,47.25s34.49-17.45,42.28-32.47q5.65-10.95,11.17-22c-3.57,13-7.17,25.94-11,38.85-.19.68-.41,1.36-.63,2.06-4.61,15.1-11.88,31.57-27.62,37.64-6.77,2.62-14.8,2.55-21.21-1a20.64,20.64,0,0,1-2.32-1.47c-6.47-4.77-11.62-12.38-16.56-18.67-10.15-12.9-17.61-27.35-24.64-42.13a129.6,129.6,0,0,1-11.5-37.37A159.48,159.48,0,0,0,268.28,531.76Z" transform="translate(0 0)"/><path class="cls-10" d="M248.66,377a186.94,186.94,0,0,1-8.95-30.69c-1.64-8.62-5.75-25.9-8.14-25.66s-4.19,9.89-4.39,13.82c-.32,6.3-.14,12.61-.54,18.91s-.91,12.39-1.63,18.55-3.6,12.06-4,18.27a1,1,0,0,0,.84,1.18c4.24.84,8.21-.27,12.37-1.15,4.39-.93,9.25.11,13.64-.83,2-.43,3.42-.41,3.71-2.52C252,383.89,249.7,379.69,248.66,377Z" transform="translate(0 0)"/><path class="cls-10" d="M437.68,383.31a186.83,186.83,0,0,1-8.95-30.68C427.08,344,423,326.72,420.59,327s-4.19,9.88-4.39,13.82c-.32,6.3-.14,12.6-.54,18.9s-.92,12.4-1.63,18.56-3.61,12.05-4,18.27a1.05,1.05,0,0,0,.84,1.18c4.24.83,8.2-.28,12.36-1.16,4.4-.93,9.26.11,13.65-.82,2-.44,3.42-.41,3.71-2.53C441,390.2,438.72,386,437.68,383.31Z" transform="translate(0 0)"/><path class="cls-3" d="M234.3,312.88a1.49,1.49,0,0,1,0-.18,2.72,2.72,0,0,0-.15-.43L234,312a3.92,3.92,0,0,0-.22-.51c-.08-.17-.14-.34-.22-.5a3.12,3.12,0,0,0-5.67-.15c-1.43,2.74-1.91,7.88.82,10.1a3.28,3.28,0,0,0,4.27.32,3.77,3.77,0,0,0,1.66-2.6,13.16,13.16,0,0,0,0-3.26A10,10,0,0,0,234.3,312.88Z" transform="translate(0 0)"/><path class="cls-3" d="M423.48,320.22a1.16,1.16,0,0,0,0-.18,3.66,3.66,0,0,0-.15-.43c0-.08-.05-.16-.08-.24a4.67,4.67,0,0,0-.23-.51c-.07-.16-.13-.33-.22-.5a3.13,3.13,0,0,0-5.67-.15c-1.42,2.75-1.91,7.88.82,10.1a3.28,3.28,0,0,0,4.27.32,3.81,3.81,0,0,0,1.67-2.6,14.19,14.19,0,0,0,0-3.26A10.6,10.6,0,0,0,423.48,320.22Z" transform="translate(0 0)"/><path class="cls-5" d="M434.77,218.75c-1.43-10.41-1.63-22-4.39-32.16-1-3.52-1.37-5.38-4.76-7.35-6.44-3.75-18.14-3.84-25.46-5.32-9.43-1.9-18.89-4.16-28.46-5.26-9.28-1.07-18.55-.58-27.86-.51-11.61.08-22.95-1.15-34.46-2.4-16.9-1.85-34.74-3.34-51,2.79-12.51,4.71-23.79,14.19-28,27.21-4.88,15.19-3.07,33.87-3,50.11a1.83,1.83,0,0,0-.57,2.85l.55.72c0,.25,0,.5,0,.75a1.64,1.64,0,0,0,1.89,1.75,42.69,42.69,0,0,1,7.57,19.94,2.07,2.07,0,0,0,3.91.63c5.47-12.77,1.3-25.57,3.1-38.85,1.07-7.91,4-15.18,4.65-23.2.44-5.34.49-10.56,1.7-15.43a32,32,0,0,0,8.67,4.09c9.38,3.06,17.09-.08,26.4.47,7.5.44,11.7,4.76,19.67,2.8,8.53-2.1,16.82-5.25,23.54-10.92a47.36,47.36,0,0,0,7.29,3.18c12.8,4.34,25.71,2.45,33.72,15.31,4.7,7.53,8.14,15.28,17.14,18a111.75,111.75,0,0,0,13.07,2.87c6.21,12.45,17.38,23.46,16.49,38.41-.54,9.1-1.06,16.8,1.42,25.75,2.73,9.79,7.05,19.07,8.37,29-.31.83,4,12.73,4.28,10.1.31-3.28,8.38-2.37,8.05-5.48,5.5-14.55,8.45-20,7.27-35.73-.38-5-7.71-23.6-8.33-28.54-.79-6.25.27-12,.52-18.17C438.12,237.05,436,227.72,434.77,218.75Z" transform="translate(0 0)"/><path class="cls-6" d="M244.52,172.6c-1-3.61-3.94-6.12-4.65-9.94s.52-8.17,1.46-11.94c.64-2.56-3.42-3.22-4.05-.67-1.61,6.46-2.39,12,.21,18.18,1.83,4.36,3.58,7.21,3.18,12.21-.29,3.76-.74,6.95-.16,10.7.41,2.6,4.49,2.19,4.08-.42C243.66,184.75,246.2,178.47,244.52,172.6Z" transform="translate(0 0)"/><path class="cls-6" d="M421.94,204.82c-5.74-8.9-14.75-11.24-24.13-14.72-6.84-2.54-11.07-6.38-15.45-12-2.39-3.1-4.63-5.71-8-7.66A36.94,36.94,0,0,0,343.53,168c-2.47.93-1,4.75,1.49,3.82a30.17,30.17,0,0,1,34,8.62c3.8,4.51,6.46,8.39,11.86,11.16,6.27,3.21,13.46,4.23,19.53,7.88,11.89,7.14,13.65,20.69,12.31,33.44-.28,2.61,3.76,3.3,4,.67C427.85,223.74,427.5,213.44,421.94,204.82Z" transform="translate(0 0)"/><path class="cls-6" d="M434.49,171.2a34.58,34.58,0,0,0-34.2-22.64c-2.63.08-2.2,4.16.43,4.07a30.42,30.42,0,0,1,29.95,20.07C431.61,175.16,435.43,173.68,434.49,171.2Z" transform="translate(0 0)"/><path class="cls-4" d="M498.8,538.35c3.39,20,6.36,40.09,10.79,59.87,3.71,16.58,10.81,43.9,14.17,56.28H654.87V624.2c-1.67-2.34-3.16-4.4-4.43-6.13-21.32-29-37.14-59.64-60.11-87.35-9.59-11.55-28.72-31.24-41.42-39.12a104.11,104.11,0,0,0-36-14.05c-23-4.49-24.31,4.44-26.58,14.39-1.53,6.69,6.36,10.2,7.49,16.86Q496.29,523.57,498.8,538.35Z" transform="translate(0 0)"/></g></g></g></svg>