<svg xmlns="http://www.w3.org/2000/svg" viewBox="0 0 655.24 655.24"><defs><style>.cls-1{fill:#fff;}.cls-2{fill:#b06d51;}.cls-3{fill:#8f5238;}.cls-4{fill:#ffa894;}.cls-5{fill:#232c44;}.cls-6{fill:#f7886d;}.cls-7{fill:#fad3b1;}.cls-8{fill:#ebbd94;}</style></defs><g id="Layer_2" data-name="Layer 2"><g id="Layer_1-2" data-name="Layer 1"><path class="cls-1" d="M164.84,466.34l.24.31c.84-.55,1.69-1.09,2.55-1.61h0c.74-.45,1.51-.89,2.27-1.33l.32-.21,6.39-3.77a5.43,5.43,0,0,0,.62-.27l.19,0c.9-.27,1.8-.51,2.71-.75,2.3-1,4.87-1.94,7.64-2.9C178.58,448.29,170,438,169.5,425.67c-.31-8.52,3.6-16,6.09-23.94,3.25-10.36.83-19.56-1.86-29.62-4-15.05-2.35-26.71,4.4-40.69,8.83-18.3,13.51-35.37,14.25-55.79,1.23-34.19-2.21-67.48,12.71-99.44C212.67,160,220.72,131,237,119.78c50.1-34.47,122.22-11.55,122.22-11.55a51.73,51.73,0,0,1,47.73.94c25.84,13.91,34.87,48.89,40.84,76.86,3.47,16.3,3,32.82,6.4,49.1,3.61,17.25,6.83,34.62,8.26,52.2,1.74,21.46-.08,42.9,4.17,64.22,6.29,31.56,12.93,67.38,7.61,99.59,17.31,3.73,36,8.58,47.46,13.61,2.54,1.12,5,2.33,7.48,3.66,1.39.74,2.76,1.51,4.09,2.33h0c.86.51,1.71,1.05,2.55,1.61l.24-.32s27.8,9.6,56.74,48a326.13,326.13,0,0,0,62.45-192.41C655.24,146.68,508.56,0,327.62,0S0,146.68,0,327.62A326.41,326.41,0,0,0,86.38,549.27C121.21,481.4,164.84,466.34,164.84,466.34Z" transform="translate(0)"/><path class="cls-2" d="M187.21,447.4c-1.06.82-2.77.72-3-.93-.12-.73-.18-1.45-.28-2.18a2.14,2.14,0,0,1-.32-2.54A67.86,67.86,0,0,1,189.36,406c3.55-7.64,9.42-13.5,13.44-20.78,5-9.07,3.86-19,5-28.92,1.06-8.92,4.34-16.87,8.56-24.44-.59-5.92-1-11.85-1.15-17.8-.4,2-3.79,1.8-3.94-.55-.95-14.52,2.67-26.37,7.5-38.8a166.19,166.19,0,0,1,7.86-26.25c-.27-4.44-.4-8.89-.25-13.4.08-2.32.21-4.63.39-6.95-.22-6.83-.27-13.7,1.06-20.56a82.71,82.71,0,0,1,19.25-38.93c11.6-13.12,27.35-20.19,42.63-28.1,2.27-1.18,4.28,2.25,2,3.43-15.47,8-31.28,15.06-42.79,28.61A78.56,78.56,0,0,0,240.92,184c7.89-4.12,18.42-6.21,26.45-8.8,10.19-3.3,20.48-6.25,30.83-9,.3-2.73.57-5.48.78-8.26.18-2.54,4.16-2.56,4,0s-.43,4.81-.67,7.21a1.8,1.8,0,0,1,1.62.43,140.6,140.6,0,0,1,45.31-12.21,21.29,21.29,0,0,1,3.54-6.27c5.5-7.66,3.52-10.77,2.32-19.19a51,51,0,0,1,.27-14.34c.35-2.53,4.18-1.45,3.84,1.06a44.79,44.79,0,0,0,.38,15.83c.54,2.49,1.84,5.21,1.91,7.81a13,13,0,0,1-2,6.72c-1.16,2.16-4.58,4.89-5.33,6.89a5,5,0,0,0-.28,1.13A132.6,132.6,0,0,1,390,155.75c14.61,3.19,21.29,9.89,25,24.21,4.81,18.53,8.87,37.36,6.48,56.54,5.8-4.36,12.8-4.73,17.09,5.08,6.4,14.64,6.5,34.69-2.07,48.16-1.42,2.24-3.4,5.3-5.57,8.08q2.22,29,4.45,58,1.39,18.28,2.8,36.57c.43,5.64.52,11.45,1.52,17,1.2,6.78,4.67,10.12,7.52,15.95,3.11,6.35,3.53,14.2,4.21,21.31,6.67,1.15,14.58,2.66,22.8,4.43,5.32-32.21-1.32-68-7.61-99.59-4.25-21.32-2.43-42.76-4.17-64.22-1.43-17.58-4.65-34.95-8.26-52.2-3.41-16.28-2.93-32.8-6.4-49.1-6-28-15-62.95-40.84-76.86a51.73,51.73,0,0,0-47.73-.94S287.08,85.31,237,119.78C220.72,131,212.67,160,205.09,176.19c-14.92,32-11.48,65.25-12.71,99.44-.74,20.42-5.42,37.49-14.25,55.79-6.75,14-8.43,25.64-4.4,40.69,2.69,10.06,5.11,19.26,1.86,29.62-2.49,7.93-6.4,15.42-6.09,23.94.45,12.37,9.08,22.62,18.29,30.09.67-.23,1.34-.46,2-.68A33.05,33.05,0,0,0,187.21,447.4Zm78.48-309.69c16.51-8.57,33.54-10.37,51.73-7.25,2.52.43,1.44,4.26-1.06,3.83-17.11-2.93-33.16-1.19-48.66,6.85C265.43,142.32,263.42,138.89,265.69,137.71Z" transform="translate(0)"/><path class="cls-2" d="M215.19,311.17c0-1.71,0-3.43,0-5.15C215.14,307.7,215.14,309.41,215.19,311.17Z" transform="translate(0)"/><path class="cls-3" d="M425.47,303.42c-1,18.15-5.29,36-15.51,53.81-1.89,3.28-3.83,6.51-5.83,9.63l.12,38.9a25.18,25.18,0,0,1,10.87-3.59c23.8-1.61,14,25,17.68,42.18a4.88,4.88,0,0,1,1.45,0c1.31.06,3.4.3,6.11.66l2.92.43c1.77.26,3.74.58,5.85.92l2.28.39c-.68-7.11-1.1-15-4.21-21.31-2.85-5.83-6.32-9.17-7.52-15.95-1-5.58-1.09-11.39-1.52-17q-1.4-18.29-2.8-36.57-2.24-29-4.45-58A28.29,28.29,0,0,1,425.47,303.42Z" transform="translate(0)"/><path class="cls-3" d="M295.44,381.9c-12.71-10.58-23.92-23.78-29.7-36.08a165.47,165.47,0,0,1-6.41-15.93c-.81,10.28-1.87,22.92-2.89,36.08q1.47,17.37,2.95,34.73c1.11,13.06,2.68,26.24,3.39,39.4l.17,0,.62.12q3.19.63,6.38,1.57c.46.12.92.28,1.38.42,1.29.42,2.6.86,3.89,1.27,0-6.3-1.51-11.73-3.24-18.29-1.07-4-1.59-8.33,0-12.31,3.92-9.72,13.17-6.66,20.66-3.48l4.2,1.79q-.53-14.64-1.41-29.25Z" transform="translate(0)"/><path class="cls-3" d="M202.09,451.27q1.13-.58,2.22-1.2a73.84,73.84,0,0,1,0-8.41c1.34-22.88,9.58-44.66,13.48-67.13.9-5.22,1.6-10.47,2.17-15.72,0-.26,0-.54-.09-.79-1.32-8.81-2.56-17.5-3.43-26.19-4.22,7.57-7.5,15.52-8.56,24.44-1.18,9.88,0,19.85-5,28.92-4,7.28-9.89,13.14-13.44,20.78a67.86,67.86,0,0,0-5.78,35.78,2.14,2.14,0,0,0,.32,2.54c.1.73.16,1.45.28,2.18.26,1.65,2,1.75,3,.93a33.05,33.05,0,0,1,2.61,7.68c2.63-.87,5.42-1.73,8.32-2.57a.14.14,0,0,1,0-.06A34.73,34.73,0,0,0,202.09,451.27Z" transform="translate(0)"/><path class="cls-4" d="M397.59,376.34c1.33-1.19-1.55,8-2.35,10-3.87,9.83-4.18,13.26-12.91,19.5a110.7,110.7,0,0,0-13.81,12.06c7.63-.07,14.19-.37,17-1.24,7-2.16,12.5-7.33,18.74-10.89l-.12-38.9C402,370.15,399.85,373.32,397.59,376.34Z" transform="translate(0)"/><path class="cls-4" d="M295.45,382l0,0,0,0Z" transform="translate(0)"/><path class="cls-4" d="M295.44,381.9l0,0h0c14.65,12.47,47.23,22.51,57.25,21.48,17.11-1.76,29.8-13.48,44.85-27.06h0c2.26-3,4.44-6.19,6.54-9.48,2-3.12,3.94-6.35,5.83-9.63,10.22-17.78,14.48-35.66,15.51-53.81-3.55,2.5-6.76,1.9-8-6.47-1.76-11.42-3.47-23-4.72-34.45-.58-5.44-.68-10.66.71-15.58a2.27,2.27,0,0,1,.14-.54l.09-.17a23.8,23.8,0,0,1,3.27-6.66,1.94,1.94,0,0,1,1.42-.84,2.1,2.1,0,0,1-.64-.68c-6.32-10.12-4.58-21.42-6.75-32.68a60,60,0,0,0-7.38-19.19c-5.17-8.71-11-12.27-21.27-12.56-26.09-.74-52.83,3.15-78.42,8.83a6.38,6.38,0,0,1,.32,2.23c-.15,2.73-3.18,4.53-5.07,2.18a267.79,267.79,0,0,1-12.73,45.47c6.14-1.25,12.78-1.52,18,1.63,2.59,1.58,4.93,4.93,2.35,7.77-1.95,2.14-6.14,1.64-8.57,1.89A91,91,0,0,0,282,246.78c-.56.17-1.12.36-1.68.56-7.35,17.14-19.45,45.06-19.57,60.7,0,1.83-.15,4.62-.38,8.15.08.69.15,1.37.22,2.05.4,3.8,0,6.16-.9,7.47-.1,1.35-.21,2.74-.32,4.18a165.47,165.47,0,0,0,6.41,15.93C271.52,358.12,282.73,371.32,295.44,381.9Zm76.88-132.5c.46-3.78,4.13-8,8.12-4.78a9.9,9.9,0,0,1,2.84,4.39,34.84,34.84,0,0,1,1.31,10.86c-.21,4.81-1.61,8.49-6.55,6.61C373.27,264.66,371.73,254.32,372.32,249.4ZM372.13,334a21.52,21.52,0,0,1-10,12.3,43.74,43.74,0,0,1-14.78,4.9,44.84,44.84,0,0,1-19.26-1.46c-3.58-1.16-10.8-3.74-11.59-8.06-.09-.48.19-1.14.79-1.09,1.45.14,50.25-7.68,54-7.64A.85.85,0,0,1,372.13,334ZM352.76,225c5.47-6.6,15.95-7.71,23.93-8s18.37,2.74,23.26,9.41a2,2,0,0,1,0,2.42c-1.49,1.84-1.73,1.68-4.16,1.93-5.57.56-12-1.23-17.69-1a91.73,91.73,0,0,0-16.33,2.28c-2.38.55-6.17,2.4-8.71,1C349.7,231.23,350.82,227.3,352.76,225Zm-23.35,59.87c0-2.56,4-2.56,4,0-.11,6.1-.07,12.19.21,18.28.21,4.39-.66,9.54,5.12,11.22,2.61.76,7.47-.4,10-.78s3.58,3.45,1.06,3.83c-6.24.94-15.62,3.29-18.83-3.94-1.36-3.08-1.16-7-1.31-10.33C329.33,297,329.29,290.93,329.41,284.83Zm-49.3-21.32c.35-3.76,3.88-8,7.91-4.94a9.83,9.83,0,0,1,2.92,4.28,34.28,34.28,0,0,1,1.57,10.71c-.09,4.77-1.38,8.44-6.31,6.7C281.43,278.58,279.64,268.39,280.11,263.51Z" transform="translate(0)"/><path class="cls-5" d="M384.59,259.87A34.84,34.84,0,0,0,383.28,249a9.9,9.9,0,0,0-2.84-4.39c-4-3.18-7.66,1-8.12,4.78-.59,4.92.95,15.26,5.72,17.08C383,268.36,384.38,264.68,384.59,259.87Z" transform="translate(0)"/><path class="cls-5" d="M286.2,280.26c4.93,1.74,6.22-1.93,6.31-6.7a34.28,34.28,0,0,0-1.57-10.71,9.83,9.83,0,0,0-2.92-4.28c-4-3-7.56,1.18-7.91,4.94C279.64,268.39,281.43,278.58,286.2,280.26Z" transform="translate(0)"/><path class="cls-4" d="M418.34,238.71a1.94,1.94,0,0,0-1.42.84,23.8,23.8,0,0,0-3.27,6.66l-.09.17a2.27,2.27,0,0,0-.14.54c-1.39,4.92-1.29,10.14-.71,15.58,1.25,11.49,3,23,4.72,34.45,1.28,8.37,4.49,9,8,6.47a28.29,28.29,0,0,0,5.44-5.6c2.17-2.78,4.15-5.84,5.57-8.08,8.57-13.47,8.47-33.52,2.07-48.16-4.29-9.81-11.29-9.44-17.09-5.08l-.06.53A2.07,2.07,0,0,1,418.34,238.71Zm8.91,10.67c-.35,4.24-2.05,10.7.11,14.25,1.55,2.55,3.26,3.65,3.93,6.8,1.18,5.52-1.51,10.31-5.94,13.41-2.1,1.48-4.08-2-2-3.43,4.7-3.3,5.6-8.88,1.86-13.39-.81-1-2.13-1.53-2.68-2.72-1.69-3.63.42-11,.74-14.92C423.48,246.84,427.46,246.83,427.25,249.38Z" transform="translate(0)"/><path class="cls-4" d="M260.55,318.24c-.07-.68-.14-1.36-.22-2.05-.17,2.75-.41,6-.68,9.52C260.57,324.4,261,322,260.55,318.24Z" transform="translate(0)"/><path class="cls-6" d="M422.53,264.3c.55,1.19,1.87,1.75,2.68,2.72,3.74,4.51,2.84,10.09-1.86,13.39-2.08,1.46-.1,4.91,2,3.43,4.43-3.1,7.12-7.89,5.94-13.41-.67-3.15-2.38-4.25-3.93-6.8-2.16-3.55-.46-10-.11-14.25.21-2.55-3.77-2.54-4,0C423,253.29,420.84,260.67,422.53,264.3Z" transform="translate(0)"/><path class="cls-2" d="M298.14,243.6c2.43-.25,6.62.25,8.57-1.89,2.58-2.84.24-6.19-2.35-7.77-5.18-3.15-11.82-2.88-18-1.63-1.19,3.14-2.41,6.27-3.71,9.38-.72,1.7-1.53,3.61-2.41,5.65.56-.2,1.12-.39,1.68-.56A91,91,0,0,1,298.14,243.6Z" transform="translate(0)"/><path class="cls-2" d="M353.08,233.07c2.54,1.39,6.33-.46,8.71-1a91.73,91.73,0,0,1,16.33-2.28c5.73-.27,12.12,1.52,17.69,1,2.43-.25,2.67-.09,4.16-1.93a2,2,0,0,0,0-2.42c-4.89-6.67-15.34-9.68-23.26-9.41s-18.46,1.38-23.93,8C350.82,227.3,349.7,231.23,353.08,233.07Z" transform="translate(0)"/><path class="cls-6" d="M395.24,386.33c.8-2,3.68-11.18,2.35-10h0c-15,13.58-27.74,25.3-44.85,27.06-10,1-42.6-9-57.25-21.48h0l0,0q.9,14.61,1.41,29.25c13.78,5.9,19.12,8,35.16,6.52,4.68-.44,22.43.27,36.5.15a110.7,110.7,0,0,1,13.81-12.06C391.06,399.59,391.37,396.16,395.24,386.33Z" transform="translate(0)"/><path class="cls-1" d="M317.29,340.63c-.6-.05-.88.61-.79,1.09.79,4.32,8,6.9,11.59,8.06a44.84,44.84,0,0,0,19.26,1.46,43.74,43.74,0,0,0,14.78-4.9,21.52,21.52,0,0,0,10-12.3.85.85,0,0,0-.84-1.05C367.54,333,318.74,340.77,317.29,340.63Z" transform="translate(0)"/><path class="cls-7" d="M443.16,592.4c3.71-4,44.24-56.8,70.52-91.12-7.23,2.86-15.87,3.09-23.67,2-11.35-1.59-24.62-7.58-34.7.22-7.56,5.85-13.11,14.08-20.62,20.08-10.82,8.65-25.52,14.3-39,8.36-8-3.54-13.78-10.32-21.16-14.78-10.95-6.6-23-5.19-35-2.62-15.3,3.28-29.67,6.79-44.95,4.19q1.11,3.48,2.23,7c7.31,22.62,13.95,45.47,19.53,68.59q4.19,17.37,7.54,34.92,1.81,9.57,3.34,19.19c.34,2.14.64,4.28,1,6.42,0,.16,0,.29.06.44a326.57,326.57,0,0,0,125.27-25.11C446.2,608.09,442,593.66,443.16,592.4Z" transform="translate(0)"/><path class="cls-7" d="M179.22,459.06l.93-.4c-.91.24-1.81.48-2.71.75l-.19,0a5.43,5.43,0,0,1-.62.27l-6.39,3.77-.32.21c.61-.34,1.21-.67,1.82-1Q175.42,460.73,179.22,459.06Z" transform="translate(0)"/><path class="cls-7" d="M535.81,472.35c-.84-.56-1.69-1.1-2.55-1.61h0c-1,2.79-1.87,5.65-2.77,8.59Z" transform="translate(0)"/><path class="cls-7" d="M449.13,446.32c-2.11-.34-4.08-.66-5.85-.92l-2.92-.43c-2.71-.36-4.8-.6-6.11-.66a4.88,4.88,0,0,0-1.45,0c-3.66-17.22,6.12-43.79-17.68-42.18a25.18,25.18,0,0,0-10.87,3.59c-6.24,3.56-11.7,8.73-18.74,10.89-2.8.87-9.36,1.17-17,1.24-14.07.12-31.82-.59-36.5-.15-16,1.48-21.38-.62-35.16-6.52l-4.2-1.79c-7.49-3.18-16.74-6.24-20.66,3.48-1.61,4-1.09,8.27,0,12.31,1.73,6.56,3.24,12,3.24,18.29-1.29-.41-2.6-.85-3.89-1.27-.46-.14-.92-.3-1.38-.42q-3.18-.94-6.38-1.57l-.62-.12-.17,0c.1,1.88.18,3.75.25,5.62,3.58,5.86,7.09,11.71,10.09,17.67q3.9,7.73,7.43,15.61c.33.75,1.1,2.6,1.54,3.66.91,2.28,1.82,4.55,2.68,6.85,3.11,8.32,5.88,16.79,8.6,25.27a73.91,73.91,0,0,0,15.4,1.16c18.18-.34,35.68-9.88,54-7.26,19.27,2.76,29.67,25.16,50.51,21.22,10.9-2.07,19.67-9.43,27.26-17.08,5.23-5.27,10.11-12.53,17.09-15.69,5.62-2.57,11.91-1.61,17.77-.58,10.88,1.89,22.06,5.29,33.07,2.43,14.1-3.64,15.26-14.56,19.1-26.37a41.65,41.65,0,0,1,1.59-4.2c-2.45-1.33-4.94-2.54-7.48-3.66-11.46-5-30.15-9.88-47.46-13.61-8.22-1.77-16.13-3.28-22.8-4.43Zm-32.74-13.95c2.5-.53,3.56,3.3,1.06,3.83-34.28,7.31-69.23,14.2-104.09,6.61-2.5-.54-1.44-4.37,1.06-3.83C348.54,446.41,382.84,439.52,416.39,432.37ZM279,452.43c-1.93-1.69.89-4.49,2.81-2.81,36.84,32.07,87,35.42,128.49,9.62,2.18-1.36,4.18,2.08,2,3.43C369.24,489.45,317.13,485.65,279,452.43Z" transform="translate(0)"/><path class="cls-7" d="M202.59,451.1a.88.88,0,0,1,0,.15l1.71-.47c0-.23,0-.47,0-.71q-1.09.62-2.22,1.2Z" transform="translate(0)"/><path class="cls-6" d="M330.93,313.44c3.21,7.23,12.59,4.88,18.83,3.94,2.52-.38,1.45-4.21-1.06-3.83s-7.38,1.54-10,.78c-5.78-1.68-4.91-6.83-5.12-11.22-.28-6.09-.32-12.18-.21-18.28.05-2.56-3.92-2.56-4,0-.12,6.1-.08,12.19.21,18.28C329.77,306.41,329.57,310.36,330.93,313.44Z" transform="translate(0)"/><path class="cls-7" d="M536.05,472l-.24.32-5.34,7c-.83,2.71-1.7,5.47-2.84,8.31a23.79,23.79,0,0,1-14,13.64c-26.28,34.32-66.81,87.12-70.52,91.12-1.17,1.26,3,15.69,10.43,37.73A328.63,328.63,0,0,0,592.79,520C563.85,481.63,536.05,472,536.05,472Zm16.5,40Q536.13,543.34,522,575.78c-1,2.34-4.44.31-3.43-2Q532.7,541.34,549.11,510C550.3,507.71,553.74,509.73,552.55,512Z" transform="translate(0)"/><path class="cls-7" d="M202.89,516.05c.42-.86.85-1.72,1.3-2.59,7.14-14.17,4.34-30.83,2-47.12-3.75-3.54-6.3-8.41-8-13.83-2.9.84-5.69,1.7-8.32,2.57-.69.22-1.36.45-2,.68-2.77,1-5.34,1.93-7.64,2.9l-.93.4q-3.81,1.67-7.48,3.66c-.61.32-1.21.65-1.82,1s-1.53.88-2.27,1.33h0c-.86.52-1.71,1.06-2.55,1.61C167.25,469.49,184.11,491.57,202.89,516.05Z" transform="translate(0)"/><path class="cls-7" d="M327.28,648.38q-1.51-9.61-3.34-19.19-3.33-17.55-7.54-34.92c-5.58-23.12-12.22-46-19.53-68.59q-1.12-3.48-2.23-7a59.52,59.52,0,0,1-6.09-1.35c-5.75-1.59-13-3.8-16.61-8.95-5.93-8.47,2.52-19.06-10.09-24.72-2,29.16-6,58.43-8.59,87.37a2,2,0,0,1-3.39,1.41c-7.25-7.41-6.45-19.87-7.5-29.49a128.7,128.7,0,0,1,1.54-39c0-.1,0-.2.05-.31-2.67,10.41-7.63,20.39-8,31.18-.42,11,5.27,20.89,5.9,31.77,8.48,10.93,14.58,18.68,15.91,20.12s-5.66,24.3-17,56.87a327.93,327.93,0,0,0,86.87,11.66h.7c0-.15,0-.28-.06-.44C327.92,652.66,327.62,650.52,327.28,648.38Z" transform="translate(0)"/><path class="cls-7" d="M263.12,457c-.16,7.43-.5,14.87-1,22.32a18.2,18.2,0,0,1,8,4.09,11.35,11.35,0,0,1,3.34,7c.92,5.93-.65,8,2.57,13.9s10.05,9,17.31,10.42c-2.72-8.48-5.49-16.95-8.6-25.27-.86-2.3-1.77-4.57-2.68-6.85-.44-1.06-1.21-2.91-1.54-3.66q-3.53-7.89-7.43-15.61c-3-6-6.51-11.81-10.09-17.67C263.15,449.49,263.2,453.25,263.12,457Z" transform="translate(0)"/><path class="cls-7" d="M204.85,456.43q-.32-2.85-.5-5.65l-1.71.47A39.34,39.34,0,0,0,204.85,456.43Z" transform="translate(0)"/><path class="cls-7" d="M257.73,586.71c-1.33-1.44-7.43-9.19-15.91-20.12,0,.56.06,1.12.07,1.68a2,2,0,0,1-2,2q-18.59.35-37.13-.81a2,2,0,0,1-1.92-1.46c-2.36-9.93-4.8-20.24-4.32-30.54.37-8.05,3-14.5,6.36-21.4-18.78-24.48-35.64-46.56-37.81-49.4l-.24-.31s-43.63,15.06-78.46,82.93a327.55,327.55,0,0,0,154.37,94.31C252.07,611,259.21,588.3,257.73,586.71Z" transform="translate(0)"/><path class="cls-1" d="M508.46,499c-11,2.86-22.19-.54-33.07-2.43-5.86-1-12.15-2-17.77.58-7,3.16-11.86,10.42-17.09,15.69-7.59,7.65-16.36,15-27.26,17.08-20.84,3.94-31.24-18.46-50.51-21.22-18.31-2.62-35.81,6.92-54,7.26a73.91,73.91,0,0,1-15.4-1.16c-7.26-1.44-14-4.44-17.31-10.42s-1.65-8-2.57-13.9a11.35,11.35,0,0,0-3.34-7,18.2,18.2,0,0,0-8-4.09l-.3,4.37c12.61,5.66,4.16,16.25,10.09,24.72,3.6,5.15,10.86,7.36,16.61,8.95a59.52,59.52,0,0,0,6.09,1.35c15.28,2.6,29.65-.91,44.95-4.19,12-2.57,24-4,35,2.62,7.38,4.46,13.19,11.24,21.16,14.78,13.44,5.94,28.14.29,39-8.36,7.51-6,13.06-14.23,20.62-20.08,10.08-7.8,23.35-1.81,34.7-.22,7.8,1.1,16.44.87,23.67-2a23.79,23.79,0,0,0,14-13.64c1.14-2.84,2-5.6,2.84-8.31.9-2.94,1.74-5.8,2.77-8.59-1.33-.82-2.7-1.59-4.09-2.33a41.65,41.65,0,0,0-1.59,4.2C523.72,484.42,522.56,495.34,508.46,499Z" transform="translate(0)"/><path class="cls-1" d="M202.64,451.25a.88.88,0,0,0,0-.15l-.5.17a34.73,34.73,0,0,1-4,1.18.14.14,0,0,0,0,.06c1.72,5.42,4.27,10.29,8,13.83-.49-3.33-.95-6.64-1.31-9.91A39.34,39.34,0,0,1,202.64,451.25Z" transform="translate(0)"/><path class="cls-8" d="M549.11,510q-16.41,31.37-30.57,63.79c-1,2.32,2.41,4.35,3.43,2q14.16-32.43,30.58-63.79C553.74,509.73,550.3,507.71,549.11,510Z" transform="translate(0)"/><path class="cls-8" d="M412.28,462.67c2.17-1.35.17-4.79-2-3.43-41.47,25.8-91.65,22.45-128.49-9.62-1.92-1.68-4.74,1.12-2.81,2.81C317.13,485.65,369.24,489.45,412.28,462.67Z" transform="translate(0)"/><path class="cls-8" d="M314.42,439c-2.5-.54-3.56,3.29-1.06,3.83,34.86,7.59,69.81.7,104.09-6.61,2.5-.53,1.44-4.36-1.06-3.83C382.84,439.52,348.54,446.41,314.42,439Z" transform="translate(0)"/><path class="cls-2" d="M226.81,228.08c-.18,2.32-.31,4.63-.39,6.95-.15,4.51,0,9,.25,13.4a166.19,166.19,0,0,0-7.86,26.25c1.48-3.83,3.08-7.71,4.69-11.75C228.09,251.49,227.19,239.83,226.81,228.08Z" transform="translate(0)"/><path class="cls-2" d="M263.12,457c.08-3.76,0-7.52-.09-11.29-.07-1.87-.15-3.74-.25-5.62-.71-13.16-2.28-26.34-3.39-39.4q-1.49-17.37-2.95-34.73c1-13.16,2.08-25.8,2.89-36.08.11-1.44.22-2.83.32-4.18.27-3.56.51-6.77.68-9.52.23-3.53.37-6.32.38-8.15.12-15.64,12.22-43.56,19.57-60.7.88-2,1.69-4,2.41-5.65,1.3-3.11,2.52-6.24,3.71-9.38a267.79,267.79,0,0,0,12.73-45.47,1.77,1.77,0,0,1-.17-.2c-1.23-1.75-1.66-4.78-2.31-6.79q-1.26-4-2.53-7.91a1.75,1.75,0,0,1,.14-1.49s0-.09,0-.14a2.74,2.74,0,0,1,2.72-1.79c1.66.17,2.07,1.59,2.59,2.93,1,2.45,1.89,4.92,2.84,7.37.43,1.14,1.06,2.37,1.43,3.61,25.59-5.68,52.33-9.57,78.42-8.83,10.23.29,16.1,3.85,21.27,12.56A60,60,0,0,1,411,205.35c2.17,11.26.43,22.56,6.75,32.68a2.1,2.1,0,0,0,.64.68A2.07,2.07,0,0,0,421.4,237l.06-.53c2.39-19.18-1.67-38-6.48-56.54-3.71-14.32-10.39-21-25-24.21A132.6,132.6,0,0,0,353.89,153c-.34,2.77,1.47,5.73,1.59,7.91.15,2.87.9,2.4-.52,5-1.23,2.24-4.66.24-3.43-2,.5-.92-2.67-6.58-2.66-8.21a9,9,0,0,1,.34-2.33,140.6,140.6,0,0,0-45.31,12.21,1.8,1.8,0,0,0-1.62-.43c.24-2.4.5-4.79.67-7.21s-3.79-2.54-4,0c-.21,2.78-.48,5.53-.78,8.26-10.35,2.72-20.64,5.67-30.83,9-8,2.59-18.56,4.68-26.45,8.8a77.52,77.52,0,0,0-10.32,32.88c-1.25,16.64,3.07,31.35-3.31,47.41C221.51,278.78,215.88,291,215.21,306c0,1.72,0,3.44,0,5.15,0,.76,0,1.53.1,2.31a2.41,2.41,0,0,1,0,.55c.15,6,.56,11.88,1.15,17.8.87,8.69,2.11,17.38,3.43,26.19,0,.25.06.53.09.79-.57,5.25-1.27,10.5-2.17,15.72-3.9,22.47-12.14,44.25-13.48,67.13a73.84,73.84,0,0,0,0,8.41c0,.24,0,.48,0,.71q.18,2.81.5,5.65c.36,3.27.82,6.58,1.31,9.91,2.37,16.29,5.17,33-2,47.12-.45.87-.88,1.73-1.3,2.59-3.38,6.9-6,13.35-6.36,21.4-.48,10.3,2,20.61,4.32,30.54a2,2,0,0,0,1.92,1.46q18.55,1.15,37.13.81a2,2,0,0,0,2-2c0-.56,0-1.12-.07-1.68-.63-10.88-6.32-20.76-5.9-31.77.41-10.79,5.37-20.77,8-31.18,0,.11,0,.21-.05.31a128.7,128.7,0,0,0-1.54,39c1,9.62.25,22.08,7.5,29.49a2,2,0,0,0,3.39-1.41c2.63-28.94,6.55-58.21,8.59-87.37l.3-4.37C262.62,471.88,263,464.44,263.12,457Z" transform="translate(0)"/><path class="cls-3" d="M351.53,163.89c-1.23,2.25,2.2,4.25,3.43,2,1.42-2.6.67-2.13.52-5-.12-2.18-1.93-5.14-1.59-7.91a5,5,0,0,1,.28-1.13c.75-2,4.17-4.73,5.33-6.89a13,13,0,0,0,2-6.72c-.07-2.6-1.37-5.32-1.91-7.81a44.79,44.79,0,0,1-.38-15.83c.34-2.51-3.49-3.59-3.84-1.06a51,51,0,0,0-.27,14.34c1.2,8.42,3.18,11.53-2.32,19.19a21.29,21.29,0,0,0-3.54,6.27,9,9,0,0,0-.34,2.33C348.86,157.31,352,163,351.53,163.89Z" transform="translate(0)"/><path class="cls-3" d="M215.19,311.17c-.05-1.76-.05-3.47,0-5.15.67-15.07,6.3-27.24,12.08-41.78,6.38-16.06,2.06-30.77,3.31-47.41A77.52,77.52,0,0,1,240.92,184,78.56,78.56,0,0,1,249,172.53c11.51-13.55,27.32-20.6,42.79-28.61,2.27-1.18.26-4.61-2-3.43-15.28,7.91-31,15-42.63,28.1a82.71,82.71,0,0,0-19.25,38.93c-1.33,6.86-1.28,13.73-1.06,20.56.38,11.75,1.28,23.41-3.31,34.85-1.61,4-3.21,7.92-4.69,11.75-4.83,12.43-8.45,24.28-7.5,38.8.15,2.35,3.54,2.54,3.94.55a2.41,2.41,0,0,0,0-.55C215.23,312.7,215.22,311.93,215.19,311.17Z" transform="translate(0)"/><path class="cls-3" d="M267.7,141.14c15.5-8,31.55-9.78,48.66-6.85,2.5.43,3.58-3.4,1.06-3.83-18.19-3.12-35.22-1.32-51.73,7.25C263.42,138.89,265.43,142.32,267.7,141.14Z" transform="translate(0)"/><path class="cls-1" d="M304.2,184.66a6.38,6.38,0,0,0-.32-2.23c-.37-1.24-1-2.47-1.43-3.61-.95-2.45-1.88-4.92-2.84-7.37-.52-1.34-.93-2.76-2.59-2.93a2.74,2.74,0,0,0-2.72,1.79c0,.05,0,.09,0,.14a1.75,1.75,0,0,0-.14,1.49q1.28,3.94,2.53,7.91c.65,2,1.08,5,2.31,6.79a1.77,1.77,0,0,0,.17.2C301,189.19,304.05,187.39,304.2,184.66Z" transform="translate(0)"/></g></g></svg>