<svg xmlns="http://www.w3.org/2000/svg" xmlns:xlink="http://www.w3.org/1999/xlink" viewBox="0 0 655.24 655.88"><defs><style>.cls-1{fill:none;}.cls-2{clip-path:url(#clip-path);}.cls-3{fill:#fff;}.cls-4{fill:#232c44;}.cls-5{fill:#485a7e;}.cls-6{fill:#fea689;}.cls-7{fill:#f2815c;}.cls-8{fill:#f7e9e1;}.cls-9{fill:#ed6a55;}.cls-10{fill:#d14b36;}</style><clipPath id="clip-path" transform="translate(0 0)"><circle class="cls-1" cx="327.62" cy="327.62" r="327.62"/></clipPath></defs><g id="Layer_2" data-name="Layer 2"><g id="Layer_1-2" data-name="Layer 1"><g class="cls-2"><circle class="cls-3" cx="327.62" cy="327.62" r="327.62"/><path class="cls-4" d="M476.85,318.46c-3.63-16-6.36-31.76-7.18-48.19-.76-15.17-.61-30.38-1.39-45.55-1.36-26.26-5.75-53.62-21.11-75.47-13.63-19.38-30.9-37.65-52.54-45.82-19.6-7.41-40.14-10-60.9-11.62-20.07-1.61-44.9.63-64.29,7.17-16,5.4-30.07,15.78-41.53,28.37-21.5,23.61-33.08,51.1-38.09,82.72q-2.49,15.74-4.33,31.57c-1.14,9.83-1.6,19.92-3.81,29.57-2.39,10.38-8.09,19.26-11.94,29.06a111.47,111.47,0,0,0-6.62,25.85c-2.78,20.53-.59,41.37,3.73,61.54.24,1.1,1.92.85,2.09-.14,1.73-10.22,3.6-20.46,7.37-30a79,79,0,0,0,.1,31.17,1.09,1.09,0,0,0,1.1.74,114.3,114.3,0,0,1,22.88.28,105.51,105.51,0,0,1,14.82,2.72c3.36.86,8.45,3.84,11.87,2,2.23-1.2,3.94-4.45,5.39-7.42-.06,4.78,0,10.63,3.31,12.83,2.87,1.91,7.9,2,11.17,2.6q6.65,1.19,13.28,2.06c5.24.7,10.51,1.25,15.77,1.65,8.37,3.72,18.57,1.75,27.65.9,3.13,0,6.25-.12,9.37-.24a1,1,0,0,0,.65-.28c15.71-.37,31.41,1.24,47,3.15,16.71,2.05,33.54,4.8,50.37,5.83,10.62.68,14.86-5.5,16-13.92.55,2.3,1.09,4.6,1.65,6.9a1.15,1.15,0,0,0,1.1.77c4.19.16,8.38.23,12.55.18a248.79,248.79,0,0,0,32.13-2.37,1.12,1.12,0,0,0,1-.88c2.51-15,5-30.12,5.66-45.39A160.77,160.77,0,0,0,476.85,318.46Z" transform="translate(0 0)"/><path class="cls-5" d="M447.29,339.27a88.65,88.65,0,0,1-4.47-27.6c0-5.61.39-11.45-1.63-16.84-2.74-7.39-8.3-13.15-15.45-8.87-14.64,8.72-31.33,10.12-48,10.9-18.38.83-36.39.92-54.62-2-16-2.59-31.79-6-48.07-5.89-8.26,0-16.69.83-24.8-1.07-7.27-1.7-12.5-6.17-20.08-6.24a2.15,2.15,0,0,0-2,1.71c-1,13.21-2.05,27-9.12,38.57-6.58,10.86-13.7,17.77-14.61,31.1-.89,12.9.8,24.67-4.09,36.7a105.51,105.51,0,0,1,14.82,2.72c3.36.86,8.45,3.84,11.87,2,2.23-1.2,3.94-4.45,5.39-7.42-.06,4.78,0,10.63,3.31,12.83,2.87,1.91,7.9,2,11.17,2.6q6.65,1.19,13.28,2.06c5.24.7,10.51,1.25,15.77,1.65,8.37,3.72,18.57,1.75,27.65.9,3.13,0,6.25-.12,9.37-.24a1,1,0,0,0,.65-.28c15.71-.37,31.41,1.24,47,3.15,16.71,2.05,33.54,4.8,50.37,5.83,10.62.68,14.86-5.5,16-13.92.55,2.3,1.09,4.6,1.65,6.9a1.15,1.15,0,0,0,1.1.77c4.19.16,8.38.23,12.55.18-.65-11-1.22-22-.64-32.82C442.4,362.88,451.7,353,447.29,339.27Z" transform="translate(0 0)"/><path class="cls-6" d="M421.73,181.08c-6.63-6.82-34.37-8.09-42.9-8.58-14.33-.83-28.75-.61-43.09-.54-32.56.15-65,1.81-96.9,8.7a3.07,3.07,0,0,0-2.38,3.41,2.27,2.27,0,0,0-1.05,1.72c-2.9,40.66-5.65,109.35,6.39,154.26,6.53,24.37,31.69,51.52,51.67,66.78,23.23,17.73,40.36,14.35,64.17,2.27,15.58-7.9,30.45-18.34,41.4-32.14,12.39-15.6,17.07-29.62,20.74-48.81a459.53,459.53,0,0,0,7.72-78.95c.2-12.81-.08-25.63-.75-38.43C426.32,202.43,428.08,187.61,421.73,181.08Z" transform="translate(0 0)"/><path class="cls-6" d="M447.18,272.71c-2.95-13-15-15.73-25.46-9.35-2,1.2-1,3.74.78,4.27-7.76,13.33-16.14,33.39-13,48.66,2.49,12.07,19.23,6.32,25.14.87C444.78,307.83,450.25,286.19,447.18,272.71Z" transform="translate(0 0)"/><path class="cls-6" d="M223.73,311.76c5.25,6.1,18.89,12.13,22.75.42,4.88-14.81-1.13-35.7-7.31-49.83,1.8-.32,3.11-2.73,1.27-4.16-9.69-7.54-21.94-6.21-26.37,6.36C209.47,277.6,214.74,301.33,223.73,311.76Z" transform="translate(0 0)"/><path class="cls-4" d="M289.63,271a41,41,0,0,0,0-12.92,11.68,11.68,0,0,0-2.69-5.56c-4.22-4.3-9.13.06-10.21,4.43-1.41,5.68-1.1,18,4.23,20.85C286.51,280.73,288.68,276.63,289.63,271Z" transform="translate(0 0)"/><path class="cls-4" d="M384.75,271.42a41.19,41.19,0,0,0,.61-12.91,11.69,11.69,0,0,0-2.45-5.67c-4-4.48-9.12-.34-10.39,4-1.66,5.61-1.89,18,3.31,21C381.22,281,383.56,277,384.75,271.42Z" transform="translate(0 0)"/><path class="cls-6" d="M443.32,479.84c-6.06-6.35-21.88-5.24-28.7-11-15.87-13.5-33.57-24.08-35-45.18-1.28-18.78,2-37.51.57-56.28a2.17,2.17,0,0,0-2.28-2l-6.63.27a2.07,2.07,0,0,0-2.21-1.95q-44.19,4.2-88.54,6.08c-.45-2.22-4.16-1.84-4.18.73,0,.24,0,.47,0,.69a2.44,2.44,0,0,0,0,1.44c1.48,5.08-.15,13.06-.26,18.39,0,.23,0,.45,0,.68-.12,6.79-.31,13.58-.52,20.34-.27,8.36-.54,17.23-2.33,25.69-1.45,6.81-7.84,15.85-12.62,21.14-14,15.45-46.28,17.06-64,21.49-1.39.35,18.53,5.46,19.18,6.54,9.16,14.8,21.82,26.4,36.07,36.21,7,4.86,14.35,9.28,21.73,13.57,6.41,3.7,12.95,8.58,20.56,8.93,19.58.91,42-9.55,59.95-16,15.85-5.66,32-10.86,47.49-17.54,6.47-2.6,12.87-5.36,19.16-8.4,3.18-1.52,9.61-3.14,10.78-7C432.46,493.47,445.15,481.75,443.32,479.84Z" transform="translate(0 0)"/><path class="cls-7" d="M235.82,301.06q-7.33-2.71-2.84-12a7.05,7.05,0,0,0,1.61-1.15,14.27,14.27,0,0,0,.73-2.88c.72-6.56-1.46-14.63-2.14-21.22-.29-2.73-4.56-2.46-4.27.29.61,5.89,1.76,12,1.85,17.94.06,4.45-3.4,4.95-4.54,9.13-1.67,6.16,2.55,11,7.69,13.69C236.36,306.16,238.26,302.32,235.82,301.06Z" transform="translate(0 0)"/><path class="cls-7" d="M434.92,269.68c.73-2.66-3.47-3.5-4.19-.85-1.42,5.14-3.51,10.78-3.7,16.15-.19,5.58,5.4,11.14-.61,15.67-2.19,1.65.2,5.21,2.4,3.54,3.51-2.64,5.66-6.54,4.81-11.06-.76-4-2.62-5.8-1.92-10.62A111.39,111.39,0,0,1,434.92,269.68Z" transform="translate(0 0)"/><path class="cls-7" d="M354.59,408.68c-14.57,6.21-29.24,10.28-44.36,3.39A171.16,171.16,0,0,1,276,391.68c-.12,6.79-.31,13.58-.52,20.34-.27,8.36-.54,17.23-2.33,25.69a10.1,10.1,0,0,0,3.93,1c2.13.13,4.09-.75,6.18-.93,5.69-.49,10.76.95,16.23,2.23,5.88,1.36,13.09,4.35,19.32,3.53,6.59-.88,9.42-6.85,15.1-9.7,10.29-5.17,23.23-9.86,23.52-23.32A2.16,2.16,0,0,0,354.59,408.68Z" transform="translate(0 0)"/><path class="cls-7" d="M347.08,309.13c-3-10.22-6.49-20-5.55-30.88.24-2.72-3.95-3.6-4.19-.86-.8,9.23,1,17.62,3.66,26.44,1.48,5,5.65,13,4.84,18-1.39,8.52-17,6.72-23.1,6.12-2.72-.27-3.6,3.92-.86,4.19,7.25.72,24.62,2.1,28-6.6C351.66,321.07,348.33,313.39,347.08,309.13Z" transform="translate(0 0)"/><path class="cls-4" d="M306,229.61c-2.87-6.17-14.74-7.14-20.4-7.27-9.11-.2-20.42,3.4-25.93,11.45a2.22,2.22,0,0,0,.2,3c3.76,3.83,11.87-.37,16.35-.88a78.75,78.75,0,0,1,17.83.07c2.61.3,6,1.43,8.6.4S307.36,232.47,306,229.61Z" transform="translate(0 0)"/><path class="cls-4" d="M366.26,238.73c2.67.84,6-.52,8.55-1a78.59,78.59,0,0,1,17.79-1.29c4.51.2,12.88,3.83,16.37-.25a2.22,2.22,0,0,0,0-3c-6.06-7.64-17.59-10.46-26.67-9.63-5.64.52-17.41,2.3-19.84,8.65C361.33,235.13,363.62,237.89,366.26,238.73Z" transform="translate(0 0)"/><path class="cls-3" d="M362.3,345.85c-1.79-.17-6.05.85-7.65,1.08-12.07,1.71-24.63,1.64-36.79,1.08-4.77-.21-10.21-.15-14.79-1.75-3.4-1.19,1.53,4.66,2,5.13a45.49,45.49,0,0,0,8,6.46,29.73,29.73,0,0,0,19.69,4.21c6.15-.8,12.46-1.8,18.17-4.33,3.55-1.57,9.71-5.41,11.19-9.14C362.93,346.57,363.51,346,362.3,345.85Z" transform="translate(0 0)"/><path class="cls-3" d="M286.4,313a35.88,35.88,0,1,1,33.39-38.2A35.92,35.92,0,0,1,286.4,313Zm-4.59-68.39A32.67,32.67,0,1,0,316.59,275,32.71,32.71,0,0,0,281.81,244.62Z" transform="translate(0 0)"/><path class="cls-3" d="M385.13,311.43a35.88,35.88,0,1,1,33.39-38.2A35.93,35.93,0,0,1,385.13,311.43ZM380.54,243a32.66,32.66,0,1,0,34.78,30.4A32.7,32.7,0,0,0,380.54,243Z" transform="translate(0 0)"/><rect class="cls-3" x="318.18" y="272.7" width="30.09" height="3.21" transform="translate(-10.92 13.83) rotate(-2.34)"/><rect class="cls-3" x="240.5" y="245.66" width="3.21" height="25.26" transform="translate(-111.91 257.3) rotate(-46.69)"/><rect class="cls-3" x="413.97" y="259.02" width="16.42" height="3.21" transform="translate(-64.86 355.24) rotate(-42.68)"/><path class="cls-4" d="M436.3,242.87c0,.28,0,.55,0,.83-6.63-2-1.78-29.25-1.27-34.47.88-9.16,1.13-18.77-3.13-27.2-2.56-5.08-6.62-9.12-10.65-13s-8.06-7.73-13-10.41c-10.62-5.79-23.15-5.83-34.88-6.92-25.67-2.38-50.33-8.54-75.28,1.13a119.06,119.06,0,0,1-18.2,5.94c-6.39,1.37-12.9,2.16-19.24,3.76a49.12,49.12,0,0,0-13.23,5.14c-5.3,3.15-7.1,7.12-10,12.35-12.51,22.89-15.33,49.11-5.88,73.7a1.08,1.08,0,0,0,1.82.35c10.73-11.44,8.29-27.94,12.15-42.06a51.91,51.91,0,0,0,20.64-1.28c4.12-1.12,8-2.59,12.36-2.54,3.37,0,6.48.67,9.8-.34,5.63-1.7,9.07-5.66,11.22-10.49l-.72,8.66a1.08,1.08,0,0,0,1.65,1.1c8.83-5.54,14-14.13,17.6-23.54.08,2.2.19,4.4.35,6.6.21,2.8-.06,6.66,1,9.27,1.34,3.22,5,2.57,8,2.69l21.86.89a1.06,1.06,0,0,0,1-.85c.3-3.89.77-7.74,1.37-11.57.16.88.3,1.76.52,2.63.55,2.27,1.39,7.15,3,8.91,3.18,3.46,9.78,2.12,13.67,1.47,7.45-1.24,14,.61,21.35,1,4.76.25,9.27-.74,12.71-3.94,5.46,8.64,8.49,19.55,12.16,29,4,10.27,7.64,20.64,9.95,31.44a1.08,1.08,0,0,0,1.36.66,19.59,19.59,0,0,0,12-19C438.38,241.35,436.25,241.5,436.3,242.87Z" transform="translate(0 0)"/><path class="cls-5" d="M266.77,131.16a141.66,141.66,0,0,0-23.48,70.54c-.17,2.74,4.1,2.43,4.26-.29a137.92,137.92,0,0,1,23.05-68.35C272.12,130.77,268.27,128.89,266.77,131.16Z" transform="translate(0 0)"/><path class="cls-5" d="M293.87,124.92a133.24,133.24,0,0,0-21.55,48c-.62,2.69,3.58,3.54,4.19.86a127.67,127.67,0,0,1,20.58-46C298.68,125.51,295.47,122.67,293.87,124.92Z" transform="translate(0 0)"/><path class="cls-5" d="M431.39,247.93,416,200.85c-.86-2.62-4.9-1.21-4,1.41l15.42,47.08C428.2,252,432.25,250.55,431.39,247.93Z" transform="translate(0 0)"/><path class="cls-8" d="M430.64,308.87a4.74,4.74,0,0,0-6.23-.08l0,0a5.11,5.11,0,0,0-1.7,3.81,4.91,4.91,0,0,0,.64,2.95c1.95,3.16,6.81,2.49,8.33-.65a3.31,3.31,0,0,0,.14-.41A4.93,4.93,0,0,0,430.64,308.87Z" transform="translate(0 0)"/><path class="cls-8" d="M235.76,306.94l0,0a5.08,5.08,0,0,0-.57-.47c-.12-.08-.26-.15-.39-.22a4,4,0,0,0-.47-.22l-.16-.08a2.61,2.61,0,0,0-.27-.06c-.1,0-.19-.08-.29-.1h-.2a2.94,2.94,0,0,0-.59-.05h-.43l-.43.07a4.79,4.79,0,0,0-2.52,1.3,3.84,3.84,0,0,0-1.39,3.38l.06.52a4.36,4.36,0,0,0,4.56,4l.64,0a4.38,4.38,0,0,0,3.91-3.41A5,5,0,0,0,235.76,306.94Z" transform="translate(0 0)"/><path class="cls-9" d="M605.28,655.88c-2.71-18.42-5.46-33.11-8.09-40.93-12.09-35.94-13.36-77.61-29.83-94.81s-146-48.61-146-48.61l-.5.77c-24.46,16.25-55.55,24.74-83.5,26.34-19.89,1.15-40.1-1.59-59.5-5.93-17.31-3.87-34.71-10.69-45.11-25.11-.45.17-.91.31-1.36.46l-.06-.08S121.79,496.29,96.78,521.07c-7.91,7.84-33.06,68.77-56.11,134.81Z" transform="translate(0 0)"/><path class="cls-3" d="M483.55,569a39.85,39.85,0,0,1-3.29-2.39c-1.77-1.63-2-3.57-2.94-5.68-2.44-5.46-6-4.09-10.32-3.84-6,.34-14.32-3.38-18,3.37-1,1.88-.52,3-.2,4.95.7,4.07,1,5.44-1.17,9.08a11.72,11.72,0,0,0-1.45,2.59,7.81,7.81,0,0,0,.6,5.86c1.33,2.47,3.65,2.68,5.7,4.26,4.87,3.77,4.53,10.11,12.26,9.29,3.47-.37,8.06-2.32,10-5.39.93-1.46.47-3,1.13-4.59,1.16-2.87,3.93-3.54,5.84-5.68a17.42,17.42,0,0,0,3.62-7.22A4.11,4.11,0,0,0,483.55,569Zm-14,7,0,.12c-.18,1.71-1.83,3-3.29,3.53l0,0a3.91,3.91,0,0,1-2.61.06,4.67,4.67,0,0,1-2.78-1.44,5.08,5.08,0,0,1-.38-.43l-.14-.18a4.75,4.75,0,0,1-.92-2.63l-.06-1.6a5,5,0,0,1,4.72-5.06,3.71,3.71,0,0,1,.58,0,6.08,6.08,0,0,1,1.26.09,5,5,0,0,1,3,2.14,4.92,4.92,0,0,1,.66,3.22A7.64,7.64,0,0,1,469.52,576Z" transform="translate(0 0)"/><path class="cls-10" d="M436.87,477.52c-26.4,28.68-70.92,41.47-109,41.85-19.92.2-40-3.49-59.14-8.74-20-5.47-39.85-14.9-48.09-35.21-1-2.53-5.08-1.17-4,1.39,7,17.19,21.79,27.82,38.8,34.08a215.89,215.89,0,0,0,64.88,12.63c41.58,1.65,91-11.82,119.81-43.16C441.94,478.33,438.73,475.49,436.87,477.52Z" transform="translate(0 0)"/></g></g></g></svg>