<svg xmlns="http://www.w3.org/2000/svg" xmlns:xlink="http://www.w3.org/1999/xlink" viewBox="0 0 655.24 654.97"><defs><style>.cls-1{fill:none;}.cls-2{clip-path:url(#clip-path);}.cls-3{fill:#fff;}.cls-4{fill:#33261a;}.cls-5{fill:#b86554;}.cls-6{fill:#9c4736;}.cls-7{fill:#fff8f0;}.cls-8{fill:#456664;}.cls-9{fill:#aeb5c2;}</style><clipPath id="clip-path" transform="translate(0 0)"><circle class="cls-1" cx="327.62" cy="327.62" r="327.62"/></clipPath></defs><g id="Layer_2" data-name="Layer 2"><g id="Layer_1-2" data-name="Layer 1"><g class="cls-2"><path class="cls-3" d="M314.74,655H340.5c175-6.77,314.74-150.72,314.74-327.35C655.24,146.68,508.56,0,327.62,0S0,146.68,0,327.62C0,504.25,139.78,648.2,314.74,655Z" transform="translate(0 0)"/><path class="cls-4" d="M468,182c-.15-1.47-.38-2.91-.67-4.34a19.47,19.47,0,0,0,1.46-8.25c-.29-6.89-4.64-12.28-8.65-17.52-4.91-6.42-9.56-13.29-15.08-19.21a30.94,30.94,0,0,0-8-6.46c-4-2.12-7.59-2.49-10.4-6.67-6.81-10.11-14.07-17.68-26-21.72a46.77,46.77,0,0,0-23-1.82c-4.56-5-12-7.88-19-8.08-5.09-.14-10.35,1.61-15.4.75-3.91-.67-7.14-3.31-11.09-4-7.79-1.39-16.81.53-24.27,2.77-8.55,2.56-15.49,6.92-23,11.52-5,3-9.58,1.61-15,2.09a31.75,31.75,0,0,0-9.9,2.58c-12.13,5.28-19.39,16.29-23.13,28.44a33.19,33.19,0,0,0-20.29,9.87c-9.05,9.24-9.2,20.44-8.78,32.63a51,51,0,0,1-.75,12.77c-.82,3.69-2.41,7.14-3.43,10.78-2,7.14-1.49,14.41-.43,21.67,1.87,12.85,4.06,25.67,6.18,38.49-2.89,6.55-2.28,14.54,2.55,20.22a33.3,33.3,0,0,0,6.15,5.14,36,36,0,0,1,9.32,10.07c3.63,5.65,7.25,11,12.07,15.76,20.2,19.78,49.48,25.39,76.79,23.32,16.59-1.26,32.49-6.27,49-8,8.1-.84,16.31-.5,24.31-2.18,7.09-1.48,13.82-4.41,20.27-7.64,23.9-12,45.83-32.87,48.46-60.85.48-5.11.15-10.21,2.24-15,1.4-3.22,3.4-6.15,4.45-9.52,2.48-8-1.49-16.42.15-24.69C466.63,197.13,468.8,190,468,182Z" transform="translate(0 0)"/><path class="cls-5" d="M182.19,562.65q34.34,16.88,70.09,30.56c22.52,8.59,48,20.09,72.66,17.16,10.89-1.28,19.76-6.17,29-11.68,11.16-6.64,22.47-13,33.92-19q8.36-4.46,16.74-8.79a177,177,0,0,0,45.14-9.22,179.17,179.17,0,0,0,18.13-7.43c4.16-2,11.83-4.44,14.55-8.13,5-6.85-5.64-11.82-10.42-14.71-23.82-14.4-59.21-20.7-71-49.3-6.26-15.18-3.52-34.41-3.46-50.49q.11-24.85.18-49.7c0-2.09-2.73-2.47-3.72-.91-6.33,10-26.53,9-36.79,9.72-11.71.84-23.48,1.06-35.24,1.05-20.93,0-45.35,2.36-64.29-8.13-.17-2.34-.29-4.68-.48-7-.17-2.55-4.17-2.45-4,.11.16,2.28.29,4.57.45,6.85a2.05,2.05,0,0,0,.15,2.34c.5,7.35,1,14.72,1.36,22.07q1.63,29.7,2.25,59.41c.14,6.23.24,12.43.29,18.66-6,13.41-15,25.45-25.86,35.72a189.59,189.59,0,0,1-28.28,21.69c-7.81,5-16.74,8.77-22.23,16.5A2,2,0,0,0,182.19,562.65Z" transform="translate(0 0)"/><path class="cls-5" d="M423.65,345.31c1.16-5.49,2.28-11.17,3.36-17,.21-1.15.42-2.29.64-3.44.63-3.47,1.25-7,1.85-10.49.34-2,.66-4,1-6v0c.82-5,1.61-10,2.38-15v0c.76-5.06,1.5-10.1,2.21-15.09a.3.3,0,0,1,0-.16c6.12-43.89,9.41-83,8.08-86.48-5.54-14.48-15.55-21.66-27-30.4-2-1.5-4-3.07-6-4.71-1.62-1.32-3.28-2.71-4.94-4.16-11.63-10.23-28.33-12.57-43.24-13.12-34.62-1.34-68.4-.44-99.54,16.68a102.59,102.59,0,0,0-12.4,7.93c-1.12.83-2.21,1.69-3.27,2.59a61.33,61.33,0,0,0-12,13.18,38.75,38.75,0,0,0-6,16.28v0c-1.2,8-.75,16.26-2.45,25.35,0,.28-.11.57-.14.91-1,6.87-1.32,25.44-.81,47.31l.06,3.25h0c.09,3.91.21,7.93.37,12,.21,5.45.45,10.94.76,16.41.26,5,.57,9.88.92,14.71,0,.31,0,.62.06.93.07,1,.15,2,.23,3.07.25,3.35.54,6.63.85,9.82.25,2.95.55,5.83.87,8.59a2.13,2.13,0,0,0,0,.25c1.26,11.14,2.8,20.61,4.64,26.87a137.9,137.9,0,0,0,20.28,42c12.59,17.35,29.41,30.64,49.82,35.8a78.82,78.82,0,0,0,25.47,2.17,113.13,113.13,0,0,0,15.6-2.24c3.38-.74,6.71-1.62,9.94-2.66a94.76,94.76,0,0,0,29.42-15.28,83.65,83.65,0,0,0,27.34-36.89C416.18,377.44,420.1,362.34,423.65,345.31Z" transform="translate(0 0)"/><path class="cls-5" d="M454,275.92c-2.61-10.33-13.83-15.64-20.84-5.5-1,1.47.39,2.83,1.81,2.81a176.63,176.63,0,0,0-11.67,30.93c-2.31,8.11-7.49,19.78-5.43,28.41,3.31,13.95,22-1.52,26.68-7C456,312.15,458.22,292.6,454,275.92Z" transform="translate(0 0)"/><path class="cls-5" d="M208.55,311.07c3.91,6.06,20.4,23.87,25.53,10.48,3.17-8.29-.42-20.55-1.64-28.88-1.6-11,.25-18.49-3.37-29,1.41.21-1.13-4.18-1.94-5.78-5.6-11-17.43-7.18-21.39,2.71C199.36,276.59,199,296.27,208.55,311.07Z" transform="translate(0 0)"/><path class="cls-4" d="M390.26,285.73a38.17,38.17,0,0,0,.74-12,10.78,10.78,0,0,0-2.2-5.3c-3.68-4.22-8.47-.44-9.71,3.56-1.62,5.19-2,16.66,2.79,19.57C386.84,294.58,389.08,290.89,390.26,285.73Z" transform="translate(0 0)"/><path class="cls-4" d="M281.55,280.44a37.17,37.17,0,0,0,.45-11.73,10.61,10.61,0,0,0-2.26-5.13c-3.69-4.05-8.29-.24-9.42,3.69-1.46,5.11-1.58,16.33,3.17,19.06C278.4,289.16,280.51,285.51,281.55,280.44Z" transform="translate(0 0)"/><path class="cls-6" d="M441.4,281.76a2,2,0,0,0-3.12-2.07,2,2,0,0,0-1.14,2.88c-.63,2.81-1.32,5.61-2.16,8.37-.74,2.43-3.06,6.24-2.79,8.77.13,1.32.9,1.83,1.48,3,1.19,2.46,2.25,4.76,2.11,7.57-.12,2.58-2.57,11.11-6.9,9.22-2.33-1-4.26,2.47-1.91,3.49,6.89,3,12.49-6.35,12.89-12.29a16.11,16.11,0,0,0-.41-4.94c-.51-2.06-2.69-4.2-3-6-.38-2,1.8-5.87,2.42-7.9C439.86,288.55,440.67,285.17,441.4,281.76Z" transform="translate(0 0)"/><path class="cls-6" d="M225.52,307.59q-10.22-8.4-2.77-14.82a18,18,0,0,0,2.86-2.65,5.45,5.45,0,0,0,.63-3c.45-6.86-2.91-15.38-4.86-21.83-.74-2.45-4.55-1.29-3.81,1.16,1.42,4.7,6.15,16.8,4.41,21.39-1.33,3.47-5.36,4.89-6.41,9-1.71,6.79,2.91,12.46,9,14.55C227,312.29,227.92,308.42,225.52,307.59Z" transform="translate(0 0)"/><path class="cls-6" d="M369.71,440.28c-1.69-3.43-9.18-1.17-20.76,3.07-17.42,6.39-41.73,1.07-57.28-6.25-13.17-6.21-26.44-17.67-36.43-29.14q1.63,29.7,2.25,59.41a26,26,0,0,1,3.54-.24c8.54.26,16,4.11,24.26,4.71,6.48.47,12-2.87,18-4.59,8.54-2.43,16.34.3,24.83-1.06,6.42-1,12.32-4.13,17.75-7.54C352.52,454.48,374.32,449.64,369.71,440.28Z" transform="translate(0 0)"/><path class="cls-6" d="M347.87,324.22c-1.28-10.47-2.93-20.87-4.82-31.24-.46-2.5-4.43-2.2-4,.32,2.49,13.62,4.51,27.3,5.92,41.07.5,4.84,1.91,8-4.16,11.13-3.71,1.93-9.79.93-13.57.56-5.28-.5-9.89-1.1-15.19-.51-2.54.29-2.23,4.26.32,4,9.07-1,30.72,6.1,36.36-5.25C351.44,338.87,348.57,329.94,347.87,324.22Z" transform="translate(0 0)"/><path class="cls-4" d="M246.18,245.1c1.19,4.07,5.68,5.21,9.57,5.53,9.59.79,19.6-.18,29.21-.4,5.32-.13,17.35,1.9,21.88-1.82,10.4-8.56-10.18-13.78-15.19-14.43a92.81,92.81,0,0,0-28.28.69C259.85,235.31,244.86,240.57,246.18,245.1Z" transform="translate(0 0)"/><path class="cls-4" d="M407.86,241.42a92.61,92.61,0,0,0-28.22-1.93c-5,.42-25.83,4.74-15.81,13.74,4.36,3.92,16.46,2.42,21.78,2.78,9.59.65,19.54,2.06,29.16,1.69,3.9-.15,8.44-1.09,9.81-5.1C426.1,248.14,411.36,242.21,407.86,241.42Z" transform="translate(0 0)"/><path class="cls-6" d="M310.42,370.22a71.45,71.45,0,0,1-12.76-3.63c-1-.36-7.2-2-7.48-3,1.18,4.21,5.63,8.74,8.37,12.22,6.17,7.85,12,10.5,21.37,11.23,10.6.81,23.18-.09,32.49-6.19.09-.06,10.8-7.94,11.94-15.2-.19,1.22-13.18,4.22-18.86,5.28S322.29,372.36,310.42,370.22Z" transform="translate(0 0)"/><path class="cls-7" d="M170.43,655H521.28c-2-28.71-4.18-57.42-6.25-86.13l-2-27.5a1,1,0,0,0-.52-.84l-29.3-12.33c-9-3.77-47.88-14.43-47.88-14.43s-87.46,74.89-97.4,76.89c-10.85,2.17-103.65-71.2-103.65-71.2s-38.56,12.45-49,19.87C165.87,553.05,171,577.64,172.37,598,173.62,617.14,172.53,636.08,170.43,655Z" transform="translate(0 0)"/><path class="cls-8" d="M198,655c.73-8.23,2-16.45,3.13-24.61,4.64-33.1,14.85-105,14.2-104.9a15.18,15.18,0,0,0-3.28.68.93.93,0,0,0-.33,0c-33.28,7.58-64.89,30.86-96.36,44.08-23.49,9.88-69.48,45.08-79.72,70.59A66.87,66.87,0,0,0,31.89,655Z" transform="translate(0 0)"/><path class="cls-8" d="M619,655c-.43-10.94-1.79-21.85-5.11-32.3-4.48-14.16-12.92-26.29-21.55-38.2-8.2-11.29-16.55-22.87-27.61-31.55S540.29,540,527,536c-16.36-4.95-29.94-6.17-46.29-11.1-4.11-1.24-22-4.57-22-4.57s2,70.24,4.35,134.62Z" transform="translate(0 0)"/><path class="cls-9" d="M233.4,648.87q7.64-9.29,16.14-17.75A121.86,121.86,0,0,0,258,649.83c1.25,2.23,4.62.13,3.37-2.11a117,117,0,0,1-9.11-20.81,2,2,0,0,0-3.34-.79,247.07,247.07,0,0,0-18.41,20C228.89,648.1,231.77,650.85,233.4,648.87Z" transform="translate(0 0)"/><path class="cls-9" d="M437.77,598.51a169.37,169.37,0,0,0-10.16-16.39c-1.51-2.13-2.71-4.19-5.5-3.78-2.94.43-6.64,4.88-8.54,6.82A123,123,0,0,0,402.45,599c-1.49,2,1.38,4.8,2.89,2.73,4.34-5.94,8.73-12,14.32-16.85,2.6-2.26,2.3-2.53,4.58-.63,1.27,1.06,2.43,3.56,3.37,5,2.41,3.71,4.64,7.52,6.78,11.4C435.63,602.86,439,600.75,437.77,598.51Z" transform="translate(0 0)"/><path class="cls-9" d="M350.33,655a58.79,58.79,0,0,1,6.08-6.47c1.63-1.44,1.12-2.32,3.21-1.14.95.53,2.45,4.48,3.08,5.63l1.08,2h4.86a66.91,66.91,0,0,0-5.64-9.72c-1.27-1.72-2.54-3.59-5-3.27-3.09.4-6.07,5.74-7.8,7.82L345.91,655Z" transform="translate(0 0)"/><path class="cls-9" d="M253.74,560.46a112.28,112.28,0,0,0-7.48-15.26c-1.44-2.4-3.71-7.91-7.1-8.34s-7,4.26-9.1,6.17a137.59,137.59,0,0,0-13.26,14.16c-1.62,2,1.26,4.71,2.89,2.73,2.31-2.82,4.68-5.57,7.2-8.21,2.24-2.34,5.79-7,8.77-8.37,4.59-2.09,6.38,2.42,8.41,6a108.83,108.83,0,0,1,5.87,12.28C250.9,564,254.71,562.84,253.74,560.46Z" transform="translate(0 0)"/><path class="cls-4" d="M449,190.27c-1.89-5.23-5.77-9.48-9.3-13.67-4.29-5.09-8.71-10.06-13.44-14.74C417.07,152.8,406.71,145,394.77,140c-24.21-10.15-51.34-9.29-76.59-4-14.27,3-28.2,7.34-42.05,11.86-11.54,3.77-24,7.2-33.43,15.25-23.08,19.71-16.54,54.43-22.71,80.8a1,1,0,0,0,1.19,1.18c1.43,7.17,2.44,14.8,4.79,21.61.83,2.39,2.84,5.52,5.81,4.3,4-1.66,4.07-10,4.43-13.37.8-7.64,0-14.77,2.39-22.21,2.09-6.52,2.66-13.2,3.73-19.92,1.35-8.53,4.58-14.91,10.12-21.52a132.47,132.47,0,0,0,21-34.46,23.94,23.94,0,0,0,7.15.81c5.92,0,11.84,0,17.76.12,12.17.22,24.33.7,36.49,1.19,24.14,1,47.94,3.57,71.86,6.88a1,1,0,0,0,.73-.18c16.39,7.67,14.1,32.23,16,47.3a275.62,275.62,0,0,0,5.69,30.89,105.8,105.8,0,0,1-.21,15.92c-.44,4.78-1.72,9.41-2.25,14.15-.21,1.94-.17,3.88,1.49,5.18,3.74,2.92,5.37-2,6.34-4.76,1.39-3.94,2.65-7.91,3.81-11.92,2.39-3.23,3.38-7.09,4.07-11.17,1.29-7.52,2.3-15.09,3.44-22.63q1.6-10.61,3.22-21.21C450,203.55,451.29,196.68,449,190.27Z" transform="translate(0 0)"/></g></g></g></svg>