<svg xmlns="http://www.w3.org/2000/svg" xmlns:xlink="http://www.w3.org/1999/xlink" viewBox="0 0 655.24 655.31"><defs><style>.cls-1{fill:none;}.cls-2{clip-path:url(#clip-path);}.cls-3{fill:#fff;}.cls-4{fill:#6b3939;}.cls-5{fill:#fea689;}.cls-6{fill:#232c44;}.cls-7{fill:#f2815c;}.cls-8{fill:#452222;}.cls-9{fill:#f2e7e1;}.cls-10{fill:#ccb9b2;}</style><clipPath id="clip-path" transform="translate(0 0)"><circle class="cls-1" cx="327.62" cy="327.62" r="327.62"/></clipPath></defs><g id="Layer_2" data-name="Layer 2"><g id="Layer_1-2" data-name="Layer 1"><g class="cls-2"><circle class="cls-3" cx="327.62" cy="327.62" r="327.62"/><path class="cls-4" d="M464.38,170.5c-3.29-11.34-5.87-22.94-11-33.45a40.06,40.06,0,0,0-.4-16.84c-3.57-12.93-22.86-21-34.33-24.5a78.23,78.23,0,0,0-21.92-3.36c-4.75,0-9.78.8-14.48,0-7-1.28-7.87-5.82-12.65-9.6-4.4-3.48-11.33-4-17.93-2.65,0-3-.38-5.78-2-7.39-3.47-3.36-14.2-1.35-18.13-.34-8.36,2.1-13.44,7.76-19.75,13.22-8.21,7.09-17.53,13.22-28,16.48-9.66,3-19.83,2.81-29.13,7.16-7.94,3.69-14.9,9.31-21,15.55-11.82,12.16-20.48,27.17-22.38,44a36.86,36.86,0,0,0-10.89,4.85c-8,4.9-16.9,11.23-19.35,20.73-2.61,10.19-.72,22.29,2.19,32.17,4,13.47,8.74,25.09,9.51,39.31.66,12.33,4.77,20,10.17,30.78a24.52,24.52,0,0,1,2.45,9.3c.63,7.8-1.29,15.59,2.21,23.47,4.75,10.69,14,19.92,21.1,29,.79,1,1.57,2,2.37,3a1.23,1.23,0,0,0,.22.27c8.71,11.11,17.28,22.23,23.89,34.74,1.19,2.25,4.85.7,3.65-1.57-6.17-11.7-14-22.27-22.09-32.63-2.44-3.11-4.9-6.18-7.36-9.28-4-5.05-8.05-10.12-11.89-15.31-1.1-1.48-2.19-3-3.21-4.57l.12-.05a3.19,3.19,0,0,0,2.18-.43.26.26,0,0,1,.09-.09,8.26,8.26,0,0,1,1.2.05,5.35,5.35,0,0,0,.44.62,23.6,23.6,0,0,0,8.78,7.05c.38.17.75.36,1.15.55a52.69,52.69,0,0,0,6.38,2.38c.83.26,1.66.51,2.49.73,15.34,4.29,28.9,12,43.88,17.1,27.54,9.36,59.68,2.66,86.44-6.3,20.94-7,37.77-10.8,50.74-23.53a59.46,59.46,0,0,0,9.72-12.49c.46-.8.93-1.63,1.39-2.47.24-.43.47-.86.69-1.3.68-1.26,1.34-2.56,2-3.88a210,210,0,0,0,9.68-24.08c8.09-23.79,14-50.75,19.47-71.75C465.18,199.48,469,186.28,464.38,170.5Z" transform="translate(0 0)"/><path class="cls-5" d="M426.72,332.7c.1-1.16.21-2.31.31-3.48.3-3.51.59-7.06.85-10.62.15-2,.28-4,.42-6v0c.35-5,.66-10.08.95-15.11v0q.42-7.68.77-15.24a.29.29,0,0,1,0-.16c1.93-44.27,1.51-83.5-.15-86.85-6.88-13.89-17.53-20.09-29.72-27.71q-3.16-2-6.46-4.12c-1.74-1.16-3.53-2.38-5.32-3.67-12.55-9.09-29.39-9.83-44.29-9-34.59,1.94-68.13,6-97.51,26A103.55,103.55,0,0,0,235,185.79c-1,.93-2,1.89-3,2.89a60.94,60.94,0,0,0-10.7,14.26,38.58,38.58,0,0,0-4.43,16.78v0c-.43,8.08.79,16.25,0,25.46,0,.28-.05.58-.06.92-.34,6.93,1.11,25.45,3.68,47.17.12,1.08.25,2.16.38,3.24h0c.46,3.89,1,7.88,1.5,11.89.73,5.4,1.49,10.85,2.32,16.26.73,4.91,1.5,9.79,2.3,14.56,0,.31.11.62.15.92.17,1,.34,2,.52,3,.57,3.32,1.16,6.56,1.77,9.7.54,2.92,1.11,5.75,1.69,8.47,0,.08,0,.17.05.25,2.31,11,4.74,20.25,7.16,26.31a138.14,138.14,0,0,0,24.17,39.92c14.18,16.08,32.18,27.72,53,30.92a78.82,78.82,0,0,0,25.57-.25,112.53,112.53,0,0,0,15.31-3.71c3.3-1.05,6.54-2.25,9.65-3.58,10.5-4.48,19.47-11.07,27.84-18,12.64-10.46,20.71-37.63,24.91-53.09C421.77,368.85,426.2,338.59,426.72,332.7Z" transform="translate(0 0)"/><path class="cls-5" d="M165.14,585.73A2,2,0,0,0,167,587.3c-.69-.06,5.95,10.59,6.31,10.91,5.95,5.36,14.65,8.87,21.79,12.15a200.26,200.26,0,0,0,52.8,15.93c18.67,2.92,37.33,2.59,55.93.85l4.22-.42c18.3-1.94,36.55-5.12,54.71-7.84,39.29-5.86,79.14-10.57,117.39-21.68,5.86-1.69,26.13-4.83,20.5-15.71-1.83-3.58-6.45-5.26-9.95-6.5-7.92-2.85-15.83-5.29-23.44-9a173.23,173.23,0,0,1-43.34-30.32,176.67,176.67,0,0,1-12.43-13.08c-.89-1-1.76-2.08-2.61-3.17-6.69-8.37-12.3-17.79-13.9-27.25-.32-1.93-.6-3.91-.81-5.88-2-17.1-.56-35.76-.38-53,0-2.21,0-4.39,0-6.54-.18-13.59-1.06-27.4-.44-41,0,0,.2-4.32.29-6.47.13-2.93-4.43-3.52-4.56-.57-.08,1.61-.14,3.21-.22,4.8-8.08-2.84-19.2-1.7-28.89-.21-4.29.69-8.29,1.41-11.62,1.91-14.38,2.17-30.59,4.37-46.07,8.46-13.33,3.49-26.14,8.38-36.83,15.78q-.27-6.25-.56-12.52c-.13-2.94-4.68-2.27-4.55.67.25,5.07.46,10.12.68,15.2-.35.28-.7.51-1,.81a2.37,2.37,0,0,0,1.25,4.13c.49.06.89,3.9,1.2,9.91,0,.08,0,.16,0,.26,0,1.07.1,2.2.14,3.38,0,.45,0,.89.05,1.33,0,.61.05,1.23.07,1.85,0,1.23.09,2.5.12,3.81a.52.52,0,0,0,0,.22c.06,1.87.1,3.8.15,5.79a1.08,1.08,0,0,0,0,.18c.1,3.18.17,6.5.21,9.87,0,.26,0,.52,0,.78.06,3,.1,6.07.14,9.1a4.86,4.86,0,0,0,0,.54c0,2.09.06,4.15.06,6.2s.06,4.21.07,6.2c0,.68,0,1.36,0,2,.05,4.89.07,9.41.1,13.2,0,5.43.05,9.36.08,10.85a20.35,20.35,0,0,1-.32,5c-1.32,5.42-5.07,11-9.66,16.35-.92,1-1.85,2-2.79,3.07-6,6.4-12.9,12.24-17.69,16.69-19.32,18-41.89,32.13-68.12,36.9C162.44,581.66,162.8,585.51,165.14,585.73Z" transform="translate(0 0)"/><path class="cls-6" d="M379.37,300.9a38.62,38.62,0,0,0-.19-12,10.92,10.92,0,0,0-2.6-5.12c-4-3.92-8.48.22-9.41,4.3-1.22,5.3-.71,16.77,4.29,19.3C376.64,310,378.59,306.14,379.37,300.9Z" transform="translate(0 0)"/><path class="cls-6" d="M279.09,305.27a37.5,37.5,0,0,0-.44-11.73A10.64,10.64,0,0,0,276,288.6c-4-3.75-8.28.4-9.1,4.4-1.07,5.21-.32,16.4,4.62,18.76C276.63,314.21,278.45,310.41,279.09,305.27Z" transform="translate(0 0)"/><path class="cls-7" d="M329,358c-9.38-1.83-16.91-3.88-16.95-15.93,0-3.89,1.58-8.28,2.33-12.11q2.66-13.5,5.32-27c.5-2.51-3.45-3-3.95-.49q-2.47,12.6-5,25.2c-1.21,6.11-3.54,12.86-2.85,19.11,1.14,10.31,11.77,13.45,20.57,15.17C331,362.46,331.52,358.51,329,358Z" transform="translate(0 0)"/><path class="cls-3" d="M293.45,383.56c.52.07,3.16,5.23,3.68,5.81a23.44,23.44,0,0,0,5.15,4.23c7.55,4.84,18.87,7.72,27.14,6.83,20.54-2.22,28-11.89,30.55-17.2a15,15,0,0,0,1.28-3.53Z" transform="translate(0 0)"/><path class="cls-5" d="M449.36,306.5c-.33-6.5-2.85-14.53-7.73-19.63a17.37,17.37,0,0,0-4.11-3.2A13.39,13.39,0,0,0,432.3,282a12.41,12.41,0,0,0-2.28,0,1.23,1.23,0,0,1-.19,0c-4.75.55-9,3.82-12.86,7.49-1.84,1.75.59,4.9,2.43,3.15,2.69-2.53,3.71-3.51,5.6-3.73-2.95,6.57-2.3,16.29-3.55,22.62-1.28,6.56-2.57,13-3.29,19.53a79,79,0,0,0-.26,15.7.91.91,0,0,0,.07.25c-.67.1-1.35.19-2,.25-2.55.24-2,4.18.57,3.94a62.8,62.8,0,0,0,8.48-1.31c6-1.47,10.93-4.34,14-10.75C443.53,329.8,449.89,317.27,449.36,306.5Z" transform="translate(0 0)"/><path class="cls-5" d="M237.12,358.23l-2-.17c0-.1.06-.15,0-.26a79.12,79.12,0,0,0-.52-14.71c-.85-6.84-2.37-13.57-3.9-20.43-1.39-6.31-1-16.05-4.07-22.53,1.88.17,2.92,1.12,5.66,3.59,1.91,1.72,4.26-1.49,2.36-3.19a36.32,36.32,0,0,0-7.51-5.49,14.27,14.27,0,0,0-6.73-1.75,11.41,11.41,0,0,0-2.61.34,13.24,13.24,0,0,0-3.82,1.55c-3.91,2.27-6.75,6.24-8.61,10.68a35.17,35.17,0,0,0-2.68,12.43c-.29,10.77,6.4,23.13,11.16,32.38,3.77,7.37,9.88,9.9,17.25,10.94a.25.25,0,0,0,.17,0c1.72.26,3.5.42,5.35.55,0,0,.08,0,.1,0C239.2,362.26,239.62,358.41,237.12,358.23Z" transform="translate(0 0)"/><path class="cls-4" d="M300.12,264a7.39,7.39,0,0,0-.63-2c-2.52-5.31-11.39-8.44-16.28-9.26-14.91-2.52-30.69,5.36-41.58,15a2,2,0,0,0,.75,3.58c9.15,2.67,19.95-.83,29.34-1.56,5.79-.43,11.6.17,17.38-.17C292.59,269.44,300.87,269.23,300.12,264Z" transform="translate(0 0)"/><path class="cls-4" d="M406.07,261.64c-11.44-8.95-27.67-15.89-42.41-12.44-4.83,1.12-13.51,4.78-15.69,10.24a6.73,6.73,0,0,0-.5,2c-.44,5.28,7.84,5,11.33,5,5.79,0,11.57-1,17.35-.9,9.42.16,20.43,3,29.41-.23A2,2,0,0,0,406.07,261.64Z" transform="translate(0 0)"/><path class="cls-7" d="M436.26,320c0-3.77-2.76-6.42-4.58-9.45q.6-5.87,1.21-11.74c.26-2.54-3.69-3.05-3.95-.49l-1.23,11.94a1.57,1.57,0,0,0,.12,1.54c1.22,2.14,3.41,4.27,4.17,6.63,1.29,4.06-3.48,8.68-5.59,11.64-1.48,2.08,1.67,4.5,3.16,2.42C432.13,328.89,436.25,324.71,436.26,320Z" transform="translate(0 0)"/><path class="cls-7" d="M227.73,340c-2.84-2.63-6-5.54-5.5-9.74.36-3.1,2.58-5.74,4.25-8.28a1.92,1.92,0,0,0,.31-1,1.86,1.86,0,0,0,0-.91,51.6,51.6,0,0,0-5-12.58c-1.24-2.2-4.91-.67-3.65,1.57a48.19,48.19,0,0,1,4.66,11.35c-2.27,3.38-4.89,6.95-4.69,11.18.24,4.92,3.83,8.46,7.22,11.61C227.19,344.89,229.59,341.72,227.73,340Z" transform="translate(0 0)"/><path class="cls-4" d="M444.65,185.62c-3.39-9.8-7.64-18.09-14.71-24.65a39.48,39.48,0,0,0-3.41-2.87,42.45,42.45,0,0,0-3.95-2.74,100.75,100.75,0,0,0-12.75-6.64h0c-2.62-1.17-5.3-2.21-8-3.17a119.49,119.49,0,0,0-63.61-4.32c-15.75,3.06-31.52,5.74-47.32,8.67-15.18,2.81-29.53,8.75-43.72,14.69C239,168,228.68,171.76,221,177.73a36,36,0,0,0-3.06,2.66,27.31,27.31,0,0,0-4.64,5.81c-3.33,5.66-3.2,12.15-3.12,18.51.13,9.88,1,19.7,1.41,29.58.71,15.5-4.14,34.37,2,49.2-2.07-1-4.21,1.94-2.15,3.26,2.35,1.54,4.33,4.43,6.43,6.88a18.91,18.91,0,0,0,3,2.9h0a6.43,6.43,0,0,0,3.79,1.34,2.05,2.05,0,0,0,2.09-1.21,8.52,8.52,0,0,0,.46-1.62c.75-3.59,0-7.48-1-10.94-2-7.08-2.25-11.81.69-18.82,5.49-13.08-3.23-32,7.39-43,3.13-3.26,7.33-5,10.33-8.57,3.42-4.08,5.74-8.86,8.88-13.12,5.19-7.08,12.51-12.74,19.91-18.05a3.73,3.73,0,0,1,.47,0c8.66-.56,17.1,3,25.71,3.64A80.06,80.06,0,0,0,320.75,185c10.33-2,19.14-7.71,29.58-3,6.3,2.84,10.94,6.3,18.14,6.7,4,.22,8.18-1,12.11-.47,4.37.59,7.25,3.38,11.4,4.2a21.14,21.14,0,0,0,10.54-1c5.24,3.42,10.22,7.39,13.31,12.75,5,8.52.73,16.63,3.12,25.36,1.43,5.23,4.61,9,5,14.82.22,3.22-.49,6.62-.31,9.88.46,9.26,3.13,18.23,5.71,27.07a1.52,1.52,0,0,0,.44.76.46.46,0,0,0,.19.14,2,2,0,0,0,2.28-.15,2,2,0,0,0,.88-1.27q4.89-27,9.76-54.08C445.43,212.82,449.4,199.35,444.65,185.62Z" transform="translate(0 0)"/><path class="cls-8" d="M240.63,189.8c-3-3-6.41-4.49-10.28-6.07a26.65,26.65,0,0,1-13-10.5c-1.39-2.16-4.52.3-3.14,2.44a28.52,28.52,0,0,0,9.6,9.35c4.46,2.6,10,3.48,13.72,7.22C239.28,194,242.44,191.61,240.63,189.8Z" transform="translate(0 0)"/><path class="cls-8" d="M436.77,152.14c-15.82,11.72-32.42,11.17-51.24,11.22-12,0-23.44,1.56-33.63,8.34-2.13,1.42.32,4.56,2.44,3.14,14.82-9.86,32.22-6.89,49-7.45,13.34-.44,25.12-4.15,35.88-12.11C441.28,153.75,438.83,150.62,436.77,152.14Z" transform="translate(0 0)"/><path class="cls-8" d="M442.87,133.24a62.29,62.29,0,0,1-39.39,11.56c-2.54-.12-3.05,3.83-.49,3.95a66.81,66.81,0,0,0,42.32-12.37C447.4,134.9,445,131.76,442.87,133.24Z" transform="translate(0 0)"/><path class="cls-8" d="M277.36,112.47c-25-1.07-41.54,18-53.08,37.87-1.28,2.19,1.87,4.63,3.15,2.42,10.7-18.4,26-37.35,49.44-36.35C279.41,116.52,279.93,112.58,277.36,112.47Z" transform="translate(0 0)"/><path class="cls-8" d="M233.88,205.81c2-1.57-.42-4.71-2.44-3.14-6.23,4.84-12.16,9.84-14.78,17.54s-2.56,16.33-2.32,24.39c.08,2.55,4,2,3.94-.57-.21-7-.23-14.5,1.81-21.23C222.41,215.11,227.76,210.56,233.88,205.81Z" transform="translate(0 0)"/><path class="cls-9" d="M43.94,655.31H623.53q2.09-8.61,3.54-17.34c1.58-9.69,3.33-20.43-1.62-29.48-4-7.22-11.13-11.78-18-15.77-11.6-6.7-23.58-12.83-35.51-18.91A1139.56,1139.56,0,0,0,418.14,509.4c-1.3-11.65-3.15-26.18-16.51-24.23-24.18,3.53-47.36,7.06-71.94,6.69a2.1,2.1,0,0,0-2.09,1.21q-3.5,7.73-7,15.46a94.92,94.92,0,0,0-1.36-11.2c-.76-4.05-1.79-6.69-6.1-7.65-8.07-1.8-19.44,1.5-27.71,2.22-9.4.82-37.91-2.35-40.88,8.49-.84,3.1-.87,6.41-2,9.42-5.7,15.53-59.88,20.94-74.69,25.33Q123,548.49,79,564.88c-10.08,3.76-23.49,6.72-30.51,15.6-6.77,8.54-6.25,20.13-6,30.45C42.89,625.71,43.46,640.5,43.94,655.31Z" transform="translate(0 0)"/><path class="cls-10" d="M310.62,505c-1.59,10.43-3.48,21.65-7.81,33.21-1,2.57-1.64,6-4.85,6.57-2.9.48-5.51-1.35-7.95-2.63a28.29,28.29,0,0,0-8.08-2.49c-14.23-2.7-22.69-15.43-36.78-18.08-2.52-.47-3,3.47-.5,4,9.91,1.86,16.29,9.69,24.78,14.38a36.62,36.62,0,0,0,10.63,3.52c5.63,1.21,10.68,4.82,16.16,5.86,6,1.13,7-3.53,8.95-8.37a159.54,159.54,0,0,0,9.39-35.43C315,502.92,311,502.43,310.62,505Z" transform="translate(0 0)"/><path class="cls-10" d="M410.88,518.45c-16.7,8-34.56,15.14-50.23,25.1-1.86,1.19-3.63,2.51-5.49,3.69-4.82,3-7.41,5.83-12,4.5-4.09-1.18-4.79-3.93-5.41-9.3l-.87-7.5-3.72-31.87c-.29-2.54-4.23-2-3.93.58l4.8,41.24c1,8.35,2.51,12.52,12.44,10.78,3.59-.63,6.75-2.48,9.79-4.37,6.62-4.13,13-8.27,20-11.73,12-5.92,24.15-11.64,36.22-17.46C414.74,521,413.2,517.33,410.88,518.45Z" transform="translate(0 0)"/><path class="cls-10" d="M308.16,655.31c-.64-19.44-.41-38.64,2.31-58.24,3.7-26.56,10.09-52.66,16.46-78.68.61-2.48-3.34-2.95-3.94-.49-11.07,45.14-21.62,90.61-19.16,137.41Z" transform="translate(0 0)"/><path class="cls-10" d="M324.45,565.14c-.55,3.27-1.09,6.54-1.64,9.81-.42,2.53,3.53,3,3.95.49.54-3.27,1.09-6.54,1.63-9.81C328.82,563.1,324.87,562.62,324.45,565.14Z" transform="translate(0 0)"/><path class="cls-4" d="M420.5,372.24s-9.56,16.52-16.88,22.84a108.63,108.63,0,0,0-13.72,14.71c-4.3,5.36-9.26,9.18-14.31,13.23-.2-13.73-1.58-27.65-5.5-40.06-5.36-17-28.43-20-44-19.34a1.72,1.72,0,0,0-1,.35,2,2,0,0,0-.82,0c-9.36,1.66-21.67,2.46-30,7.41-6.28,3.74-8.51,11.93-9.63,18.67-1.91,11.53,1.05,23.32.42,34.94,0,.81-.13,1.63-.19,2.44-2.44-2.29-4.71-4.81-7.16-7.37-4.32-4.53-9.06-8-14.12-11.73-12.14-8.88-30.11-36.08-30.11-36.08s5.16,41.16,19.68,54.19c7.25,6.51,15.54,23.16,24.37,27.25,10.39,4.81,19.31,17.1,30.29,20.67A72,72,0,0,0,343.67,477a31,31,0,0,0,14.67-7.12c11.43-4.43,27.89-23.15,37-32.86C415,416,420.5,372.24,420.5,372.24ZM337.26,399.1a47,47,0,0,1-17.71.87c-.44,4.15-.75,7.73-1.39,11.85-1.12,7.15-3.54,20-13.45,19.36-18.44-1.16-13.78-28.35-11.78-42.81,4.7-2.8,9.72-5,14.68-7.36,6.33-3,12.63-6.66,19.73-7.16,12.16-.87,23.54,6.54,35.37,9.09,1.13.24,2.78,8.81,3.08,10.06a81.19,81.19,0,0,1,1.87,10.94,74.51,74.51,0,0,1,.3,10.67c-.15,3.5.35,7.32-2,10.2a16,16,0,0,1-10.49,5.51c-7.72.91-13.62-5.36-16-11.9C337.41,412.62,337.21,405.72,337.26,399.1Z" transform="translate(0 0)"/></g></g></g></svg>