<svg xmlns="http://www.w3.org/2000/svg" xmlns:xlink="http://www.w3.org/1999/xlink" viewBox="0 0 655.24 655.05"><defs><style>.cls-1{fill:none;}.cls-2{clip-path:url(#clip-path);}.cls-3{fill:#fff;}.cls-4{fill:#6b3939;}.cls-5{fill:#452222;}.cls-6{fill:#fea689;}.cls-7{fill:#232c44;}.cls-8{fill:#fff8f0;}.cls-9{fill:#f2815c;}.cls-10{fill:#fad3b1;}.cls-11{fill:#ed6a55;}.cls-12{fill:#d14b36;}</style><clipPath id="clip-path" transform="translate(0 0)"><circle class="cls-1" cx="327.62" cy="327.62" r="327.62"/></clipPath></defs><g id="Layer_2" data-name="Layer 2"><g id="Layer_1-2" data-name="Layer 1"><g class="cls-2"><path class="cls-3" d="M316.92,655.05h21.41c176-5.65,316.91-150.07,316.91-327.43C655.24,146.68,508.56,0,327.62,0S0,146.68,0,327.62C0,505,140.93,649.4,316.92,655.05Z" transform="translate(0 0)"/><path class="cls-4" d="M473.29,470.58a66.53,66.53,0,0,0-4.38-23.83,61.26,61.26,0,0,0-10.49-18c-6.07-7.2-15.13-12.38-18.94-21.27-3.13-7.31,1.84-14.68.78-22.1-1.35-9.44-13.56-14.65-20.13-20.06-9.64-7.92-1.92-20.85-5.55-31.16a42.3,42.3,0,0,0-4.38-8.74,94.28,94.28,0,0,0-5.88-8.18c-.21-.29-.43-.55-.66-.84a36.78,36.78,0,0,0-2.87-5.35c4.85-2.84,8.37-5,9.4-5.8,18-14.55,27.16-43,30.81-65.68.73-4.6,1.45-9.51,2.06-14.64,3.36-28.47,3.69-63-9.95-85.7-7-11.62-16-23.45-25.62-32.6C397.57,97.2,384.28,92,372,87c-58.76-23.82-139.49,8.39-158.64,75.85-5.2,18.31-9.43,41.21-8.08,60.27,1.31,18.82,10.91,37,19,53.19a294.37,294.37,0,0,0,35.89,55.57c.84,1,19.11,8.65,30.77,11.42s25.31,4.05,37.18,1.86c.42-.09.82-.2,1.24-.28-.48,3.15-1,6.3-1.46,9.45-1.54,10.11-1.9,19.78-.13,29.9,1.83,10.4,3.79,20.55,4.2,31.13.37,9.88,0,19.76-.13,29.64a228.86,228.86,0,0,0,1,28.68c.95,8.37,2.21,19.2,7.06,26.38,3.67,5.44,10.32,5.77,16.28,5.15,1.13-.11,2.24-.25,3.35-.38,9.4-1.05,18.72-2.43,28.17-3.11,22.77-1.63,45.25-.75,67.95.91,7.15.54,10.39-2.15,13.06-8.59A61.91,61.91,0,0,0,473.29,470.58Z" transform="translate(0 0)"/><path class="cls-5" d="M473.29,470.58a66.53,66.53,0,0,0-4.38-23.83,121.2,121.2,0,0,0-20.63-10.09c-5.79-2.26-11.67-4.31-17.44-6.63-4.7-1.9-13.8-5.15-14.82-11-.5-2.93,1.08-5.74.64-8.73s-1.91-5.75-3.31-8.28c-3.1-5.62-7.71-10.66-9.88-16.76-7.05-19.83,5.08-39.63,6.73-59.81a94.28,94.28,0,0,0-5.88-8.18c-6.45,3.55-12.95,7.31-18.27,12.43-6.95,6.69-9.67,14.69-12.87,23.57-7.87,21.84-17.74,42.93-26.35,64.47-7.32,18.36-13.45,39.08-7,58.64,3.5,10.7,11.07,20.23,19.73,28.46,9.4-1.05,18.72-2.43,28.17-3.11,22.77-1.63,45.25-.75,67.95.91,7.15.54,10.39-2.15,13.06-8.59A61.91,61.91,0,0,0,473.29,470.58Z" transform="translate(0 0)"/><path class="cls-6" d="M405.13,292.71c.4,4.07,1.85,4.87,5.45,3.28,17.69-7.79,24.31-28.72,19.46-46.64-1-3.66-1.83-11.33-6.76-12.07s-8.85,7.06-10.78,10.37c-.66,1.13,1,2.4,1.65,1.25l.32-.58c.92,7.56-4,17.07-6,24C406.61,278.89,404.45,285.79,405.13,292.71Z" transform="translate(0 0)"/><path class="cls-6" d="M240.12,157.23c6.53-6.46,33.34-7.17,41.58-7.48,13.85-.53,27.76,0,41.61.29,31.42.76,62.72,3,93.38,10.23a3,3,0,0,1,2.23,3.34,2.23,2.23,0,0,1,1,1.67c2,39.31.7,109.37-11.78,152.5-6.76,23.4-28.87,45.44-48.45,59.79-22.75,16.68-39.22,13.1-62,1-14.89-7.93-22.53-12.71-32.85-26.23C253.18,337,243.68,315,240.5,296.42c-4.31-25.2-7.33-48-7.23-73.54,0-12.38.56-24.75,1.45-37.09C235.29,177.75,233.88,163.4,240.12,157.23Z" transform="translate(0 0)"/><path class="cls-7" d="M368.38,251a35.64,35.64,0,0,1,.19-11.25A10.15,10.15,0,0,1,371,235c3.74-3.67,7.94.21,8.81,4,1.13,5,.65,15.71-4,18.07C370.93,259.53,369.11,255.92,368.38,251Z" transform="translate(0 0)"/><path class="cls-7" d="M270.05,252.67a36.21,36.21,0,0,1,.19-11.34,10.18,10.18,0,0,1,2.46-4.83c3.78-3.7,8,.21,8.89,4.06,1.14,5,.65,15.84-4.08,18.23C272.62,261.26,270.78,257.62,270.05,252.67Z" transform="translate(0 0)"/><path class="cls-6" d="M447.42,449c-16.36-4.44-44.77-11-57.48-25.64-4.33-5-5.76-8.5-7-14.85-1.51-7.9-1.81-43.26-1.81-43.48,0-5-1.38-12.39.08-17.1a2.16,2.16,0,0,0,0-1.33v-.64c0-2.39-3.41-2.81-3.87-.76-27.46-1.72-64.76-5-92.09-8.11a1.92,1.92,0,0,0-2.09,1.77l-6.16-.37a2,2,0,0,0-2.15,1.81,181.72,181.72,0,0,0-.37,23.1c.27,9.74.74,19.48-.12,29.21a55.65,55.65,0,0,1-2.71,13.2c-4.25,12.66-13.17,22-26.72,28.5-7.5,3.6-21.13,3.95-26.88,9.74-1.73,1.75,9.86,12.87,10.7,15.84,1,3.64,7,5.25,9.9,6.73,5.79,2.93,72.08,110.17,90.29,109.68,7.08-.19,91.72-108,100.51-121.58C430.1,453.69,448.71,449.3,447.42,449Z" transform="translate(0 0)"/><path class="cls-8" d="M231.89,438.06l22.27-9.15s9.14,26.26,20.51,33.24,16.51,8.42,23.83,26,18.74,23.49,22.84,36.87,7.11,27,7.11,27,4.17-28,12.89-36.23a107.84,107.84,0,0,0,22.11-30.2c4.89-10.37,23.62-18.22,29.14-24.73s13.25-26,13.25-26l16.08,6.63,2.26,17.07S335.65,572.09,333.23,573.2,233.31,473,233.09,469.74,231.89,438.06,231.89,438.06Z" transform="translate(0 0)"/><path class="cls-3" d="M298.36,319c4.76,6.38,9.46,9.15,15.32,11,13.24,4.12,28.61,2.28,38.91-7.53.47-.45,3.38-4.8,3.38-4.8s-56.79-1.76-58.51-1.62C296.29,316.1,297.11,317.32,298.36,319Z" transform="translate(0 0)"/><path class="cls-9" d="M355.67,391.43c-5.8,9.22-7.95,11-21.48,13.51s-9.84,13.78-26.23,11-12-7-27.55-8.39a36.18,36.18,0,0,1-8.73-1.83,55.65,55.65,0,0,0,2.71-13.2c.86-9.73.39-19.47.12-29.21.07-.12,0-.44,0-.44s36.69,27.4,52.46,25.77,36.39-17.48,39.75-17.5S361.46,382.22,355.67,391.43Z" transform="translate(0 0)"/><path class="cls-9" d="M330.22,298.69c-5-3.24-11-6.42-11.29-13.49-.18-3.9,2.25-9.46,3.08-13.38a135.35,135.35,0,0,0,2.79-26.32c0-2.65-4.08-3-4.12-.36a137.12,137.12,0,0,1-1.7,20.53c-1,6.22-3.82,12.81-4.17,19.17-.48,8.73,6.39,12.89,13,17.22C330.06,303.51,332.45,300.14,330.22,298.69Z" transform="translate(0 0)"/><path class="cls-4" d="M291,207.72a67,67,0,0,0-22.87,4.68l-.24.09c-4.11,1.65-8.72,3.27-12,6.34-1.08,1-3.08,3-1.44,4,1.37.87,4.77,0,6.27-.25,3.32-.49,6.67-1.43,10-1.69,7.17-.55,14.34.23,21.51.42,3.84.1,13.08,1.2,13.26-5.17C306.72,209.42,296.15,207.6,291,207.72Z" transform="translate(0 0)"/><path class="cls-4" d="M362.22,208.3a67.08,67.08,0,0,1,23.11,3.28l.24.08a51,51,0,0,1,11.23,4.77c1,.65,3.69,2.24,3.49,3.8-.26,2.05-5.39,1.19-6.93,1.07-3.34-.28-6.74-1-10.09-1.07-7.18-.12-14.3,1.1-21.44,1.72-3.83.33-13,2-13.55-4.35C346.61,211,357.05,208.49,362.22,208.3Z" transform="translate(0 0)"/><path class="cls-6" d="M243.87,266.53c-2.29-6.83-7.67-16.1-7.09-23.69l.35.56c.72,1.12,2.3-.22,1.58-1.32-2.08-3.21-6.41-10.81-11.24-9.86s-5.37,8.67-6.19,12.37c-4,17.93,3.8,38.82,21.58,45.69,3.67,1.42,5.08.56,5.29-3.52C248.52,279.81,246,273,243.87,266.53Z" transform="translate(0 0)"/><path class="cls-4" d="M453.79,231c-1.7-3.77-3.53-7.18-3.63-11.44-.12-4.51,1.21-8.86,2.46-13.15,1.71-5.88,3.49-12,2.22-18.14-2.36-11.46-11.89-18.06-22-22.67,0-.73,0-1.43.05-2.16a1.07,1.07,0,0,0-.43-.94C415,151.87,397,141.31,377.1,136.06c-9.81-2.59-19.57-3.24-29.68-3.28-5.35,0-10.82-.2-15.89-2.08-4.41-1.62-8.13-4.54-12.32-6.59-8.24-4-16.37-2.25-24.77.33A79.84,79.84,0,0,1,281,127.8c-5.11.63-10.31.34-15.41,1.2-8.27,1.39-15.12,6.17-21.38,11.5-6.62,5.62-12.61,10.86-14.64,19.65-5.63,24.46-1.89,50-9.46,74.24-.37,1.17-.26,9.82.5,9,2.8-3.12,9.45-6.85,13.12-8.2,2.62-1,3.78-6.88,5.91-8.68,4.08-3.45,6.25-7.76,8-12.72s3.66-6.45,8.33-8.4a15.08,15.08,0,0,0,5.23-3.37c3.67-3.69,5.35-8.92,7.5-13.53,3.21-6.9,7.89-11.17,14.59-14.65,5.12-2.66,10.55-4.86,15.15-8.43a29.37,29.37,0,0,0,3.88-3.67,30.21,30.21,0,0,0,4.25,6c11.25,12.36,30.36,12.67,44.27,20.68,7.55,4.34,4.18,13.59,9.53,19.63,4,4.51,10.11,6.51,15.76,8,9.27,2.38,18.28,4.89,21.4,15.08,2.09,6.81,2.5,13.71,6.82,19.66a34.69,34.69,0,0,0,8.06,7.75,39.15,39.15,0,0,0,4.4,2.27c3.23,7.72,7.94,14.92,14.33,19.76,7.67,5.8,22,3.56,19.53-8.52-.9-4.38-2.75-8.16-2.38-12.81.4-5,2.94-8.84,5.21-13.12C456.24,240.8,456.22,236.38,453.79,231Z" transform="translate(0 0)"/><path class="cls-9" d="M237.93,273.07c-9.09-1.49.57-11.11.5-14.55-.05-2.6-1.45-5.66-2-8.22-.72-3.4-1.23-6.82-1.66-10.26-.34-2.64-4.4-1.89-4.07.75.44,3.44,1,6.86,1.67,10.26.4,1.9,2.35,5.92,1.89,7.56-.81,2.89-4.21,4.23-4.95,7.51-1.32,5.8,2.81,10.17,8.26,11.06C240.19,277.61,240.54,273.49,237.93,273.07Z" transform="translate(0 0)"/><path class="cls-9" d="M417.42,266.83c-1.86-1.87-5,.77-3.16,2.66,3.3,3.32,2.13,7.72-.35,11.17-1.55,2.16,1.82,4.54,3.37,2.39C420.78,278.18,422,271.46,417.42,266.83Z" transform="translate(0 0)"/><path class="cls-5" d="M303.14,152.62c-3.36-6.56-4.67-12.16-2.42-19.29.92-2.89,2.24-4.73,2.25-7.91,0-7.82-10.54-14.24-9.23-21.25.49-2.61-3.63-3-4.11-.36-.67,3.56-.09,5.82,1.79,8.88,4.34,7,8.67,8.62,6,18.18-1.05,3.69-2.86,6.1-2.61,10.19.3,4.74,2.52,9.19,4.64,13.33C300.62,156.75,304.36,155,303.14,152.62Z" transform="translate(0 0)"/><path class="cls-5" d="M437.55,164.19c-3-7.25-10.12-11.8-16.68-15.69-9.09-5.39-16.33-3.42-26.05-5.46-10.08-2.13-16.87-10.26-27.34-12.13-10.28-1.83-20.34-.4-30.08,3.12-2.5.9-.72,4.63,1.76,3.74,10.06-3.63,20.87-4.86,31.25-1.84,7.64,2.22,12.64,8.26,20.06,10.51,6.8,2.05,14.18.06,21,2.13,7.75,2.34,19.15,9.82,22.31,17.38C434.85,168.41,438.58,166.64,437.55,164.19Z" transform="translate(0 0)"/><path class="cls-5" d="M444.67,188c-7.94-16.54-23.6-25.46-40.82-30-2.55-.67-4,3.2-1.44,3.87,16.17,4.22,31,12.25,38.53,27.85C442.09,192.16,445.83,190.4,444.67,188Z" transform="translate(0 0)"/><path class="cls-5" d="M287,146.26a46.38,46.38,0,0,0-38.13,23.6c-1.88,3.38-2.66,7-4.12,10.48-2.6,6.19-6.89,8.77-11.36,13.34-6.07,6.22-9.27,13.83-10.59,22.31-.41,2.63,3.7,3,4.11.35,1.8-11.5,7.63-17.51,15.71-25.08,4.23-4,5.23-7.95,7.17-13.3,5.88-16.29,20.86-26.7,38-27.64C290.4,150.18,289.63,146.12,287,146.26Z" transform="translate(0 0)"/><path class="cls-10" d="M238.41,278.68a1.56,1.56,0,0,0-1.68,1.41,1.54,1.54,0,0,0,1.4,1.67c1.57.53,3.62,10.17,2.12,27.53-1.47,16.92-5.57,26.52-7.25,26.71-1.68-.14-6-9.8-4.51-26.57,1.26-14.57,2.93-21.85,4.44-25.24l-2.3-2.26c-2.37,4.52-4,13.42-5.23,27.24-1.35,15.48,2.08,29.46,7.34,29.92,6.29.54,9.62-18.31,10.59-29.53C243.77,304.51,245.59,279.3,238.41,278.68Z" transform="translate(0 0)"/><path class="cls-10" d="M416.14,284.73a1.55,1.55,0,0,1-.26,3.09c-1.64.24-5.32,9.39-6.83,26.75-1.47,16.92.91,27.08,2.53,27.56,1.69.14,7.58-8.63,9-25.39,1.27-14.58-.19-23-1.09-26.55l2.91-3c1.56,4.87,2.47,16,1.27,29.82-1.35,15.49-7.13,28.67-12.39,28.21C405,344.67,405,325.52,406,314.3,406.4,309.25,409,284.11,416.14,284.73Z" transform="translate(0 0)"/><path class="cls-11" d="M609.71,655.05c-3.9-31.67-8.08-58.42-12-70-12.08-35.94-13.36-77.61-29.83-94.81s-146-48.61-146-48.61-17.95,27.45-36.49,46c-26.36,26.31-57,64.51-57,64.51l-96.57-114S122.32,466.36,97.32,491.14c-9.06,9-40.77,87.69-66,163.91Z" transform="translate(0 0)"/><path class="cls-12" d="M325.4,655.05h4.12c-3.35-10.54-7.09-21-8.6-32C318,601.8,324.7,581,331.23,561c.8-2.43-2.93-3.82-3.73-1.38-5.93,18.17-12,36.92-11.2,56.29C316.88,629.54,321.39,642.23,325.4,655.05Z" transform="translate(0 0)"/><path class="cls-12" d="M336.88,562.88a2,2,0,0,0-2.15,1.8q-.71,3.26-1.42,6.51a2,2,0,0,0,1.81,2.15,2,2,0,0,0,2.16-1.8l1.41-6.51A2,2,0,0,0,336.88,562.88Z" transform="translate(0 0)"/><path class="cls-12" d="M333.42,639.21l-.63-7.38c-.22-2.55-4.13-1.82-3.91.72l.63,7.38C329.73,642.48,333.64,641.75,333.42,639.21Z" transform="translate(0 0)"/><path class="cls-12" d="M137.05,598.32c-13.32-14.6-18.1-30.85-20.26-50-1.94-17.25-11.39-31.54-19.47-46.55-1.2-2.25-4.81-.56-3.59,1.7,4.51,8.4,9.35,16.7,13.5,25.28,4.74,9.79,5.24,19.53,6.7,30.07A77.87,77.87,0,0,0,134,600.88C135.73,602.77,138.78,600.22,137.05,598.32Z" transform="translate(0 0)"/><path class="cls-12" d="M526.16,628.76c12-18,10.45-40.08,18.9-59.4,4.64-10.62,11.59-20,16-30.76s6.85-22,9.32-33.26c.55-2.5-3.42-2.82-4-.35-2.52,11.46-5.06,23.08-9.77,33.88-4.39,10.08-11,19-15.33,29.11-8.18,19-6.67,40.92-18.42,58.48C521.48,628.59,524.73,630.88,526.16,628.76Z" transform="translate(0 0)"/></g></g></g></svg>