<svg xmlns="http://www.w3.org/2000/svg" xmlns:xlink="http://www.w3.org/1999/xlink" viewBox="0 0 653.72 655.44"><defs><style>.cls-1{fill:none;}.cls-2{clip-path:url(#clip-path);}.cls-3{fill:#fff;}.cls-4{fill:#fea689;}.cls-5{fill:#db6e56;}.cls-6{fill:#c2563e;}.cls-7{fill:#232c44;}.cls-8{fill:#f2815c;}.cls-9{fill:#6b3939;}.cls-10{fill:#452222;}.cls-11{fill:#f2e7e1;}</style><clipPath id="clip-path" transform="translate(0 0)"><circle class="cls-1" cx="327.62" cy="327.62" r="327.62"/></clipPath></defs><g id="Layer_2" data-name="Layer 2"><g id="Layer_1-2" data-name="Layer 1"><g class="cls-2"><path class="cls-3" d="M653.72,296C637.79,129.88,497.88,0,327.62,0,146.68,0,0,146.68,0,327.62S146.68,655.24,327.62,655.24c170.26,0,310.17-129.88,326.1-296Z" transform="translate(0 0)"/><path class="cls-4" d="M426.11,526.05c-20.12-30.91-30.88-71.68-28.64-106.67a118.16,118.16,0,0,1,3.67-23.12c.5-1.89-1.77-3.88-3.17-2-14.77,19.63-36.45,19-58.51,14.76-21.72-4.16-45-6.74-66-14q.27-4.71.61-9.43c.19-2.41-3.54-3.07-3.73-.64-.23,3.11-.42,6.23-.59,9.35-1.34.59-1.85,2.68-.18,3.35q-.35,6.8-.56,13.6c0,.19,0,.39,0,.59-.4,12-.59,24-1,36a105,105,0,0,1-3.45,23.9A83,83,0,0,1,251.15,500c-11.22,15.14-28,24.66-41.09,37.9-1,1-.31,2.35.64,2.94,16.28,9.86,34,16.46,52.13,22,19.69,6,38.09,12.22,58.73,7.63,9.58-2.13,18.9-5.17,28.66-6.36,9.52-1.14,18.91-1.81,28.32-3.89A159.49,159.49,0,0,0,407,551q5.85-.35,11.59-1.13c4.67-.65,13.22-1.79,15.1-7C435.74,537.27,429,530.45,426.11,526.05Z" transform="translate(0 0)"/><path class="cls-5" d="M440.05,286.9c-.94,2.26-4.37.63-3.43-1.61,1-2.4,2-4.8,3-7.23-6.22,4.65-17.93,4.82-24.16,8.05-7.05,3.66-9.36,10.35-14.67,15.64-4.64,4.62-10.89,8.07-16.52,11.31-40.14,23-90.14,28-133.93,13-9.27-3.19-18.93-7.44-25.36-15.12a27.17,27.17,0,0,1-5.88-13.47A116.93,116.93,0,0,1,218,283.91c-.43-8.28-2.67-13.49-8.79-19.06-2.71-2.47-5.24-4.43-6.51-7.93-1.73-4.78-1.6-10.33-.57-15.82a53.07,53.07,0,0,1-6-6.36c-6.84-8.56-9.55-18.54-5.87-32.18,2.33-8.61,5.12-17.6,10.19-25,3.28-4.77,8.09-7.78,9.83-13.23,2.05-6.27.23-13.85,0-20.39-.88-19.52,4.12-36.76,22.06-46.76,9-5,18.63-6.91,28.45-7,6.82-7.47,15.54-15,36.5-17.77s70.36,15.42,70.36,15.42c21.07-7.42,40.64,15,47,35.51,10.95.49,21.79,6.13,30.69,12.57,4.81,3.48,6.79,6.28,6.75,12.09-.07,9.62,6.42,15.53,7.95,24.61,1.32,7.82-2,15.1-4.39,22.38-4,12.37-.11,23.19-.21,35.7C455.23,250.33,447.49,269,440.05,286.9Z" transform="translate(0 0)"/><path class="cls-6" d="M270.48,224.09c-3.05,1.74-6.21,3.54-9.46,5.13-.84.41-1.7.82-2.57,1.21-.43.21-.86.39-1.29.56-.87.37-1.74.72-2.64,1-.45.18-.89.33-1.33.47q-1.71.57-3.48,1c-.34.09-.66.17-1,.23-1,.21-2,.4-3.06.51l-1,.11-1.05,0a17.09,17.09,0,0,1-1.89,0c-.77,0-1.53-.05-2.3-.13a15.23,15.23,0,0,1-1.87-.32,3.21,3.21,0,0,1-.57-.15,1,1,0,0,1-.33-.1,2.3,2.3,0,0,1-.35-.1c-4-1.29-7.8-4-11.75-5.39a13.38,13.38,0,0,0-5.74-.88c-6.51.61-9.71,7.49-16.44,8.15a13.81,13.81,0,0,1-6.23-.77,53.07,53.07,0,0,0,6,6.36c-1,5.49-1.16,11,.57,15.82,1.27,3.5,3.8,5.46,6.51,7.93,5.27,4.81,7.66,9.33,8.49,15.8.14,1,.25,2.12.3,3.26a116.93,116.93,0,0,0,1.08,13.54c.85-.12,1.68-.29,2.54-.48a48.08,48.08,0,0,0,9.6-3.26,38.2,38.2,0,0,0,3.64-1.95c.34-.23.69-.44,1-.65a35,35,0,0,0,10.68-11.2,52.1,52.1,0,0,0,4.51-9.52c.66-1.83,1.28-3.64,1.91-5.4,1.32-3.73,2.64-7.35,4.24-10.85a51.56,51.56,0,0,1,6.38-10.64c4.38-5.6,8.59-10.36,9.85-17.54A1.92,1.92,0,0,0,270.48,224.09Z" transform="translate(0 0)"/><path class="cls-4" d="M322.25,452.21c32.81,8.09,62.1-10.56,79.42-39.27,7.88-13.06,18.91-32.63,22.53-47.44,6.57-26.9,9.79-54.49,12.93-82q2.76-24.21,5.44-48.43c.83-7.54,1.63-15.4-.92-22.54-2.9-8.09-9.64-14.09-16.13-19.73-8.19-7.11-16.48-14.29-26.13-19.24-19.05-9.77-41.49-9.95-62.85-8.38-24.39,1.8-49.36,5.86-70.24,18.6-11,6.68-20.77,16-25.51,27.93-3.6,9.06-4.08,19-4.45,28.76-1.39,37-1.72,74.55,7,110.56,9.1,37.73,30.7,81.06,68,97.46a64.67,64.67,0,0,0,10.91,3.72Z" transform="translate(0 0)"/><path class="cls-4" d="M454,285.11c-2-3.95-5.71-9.68-10.39-11a5.92,5.92,0,0,0-1.21-.27l-.7,0a7.84,7.84,0,0,0-2.08.22,5.46,5.46,0,0,0-.77.2,16.18,16.18,0,0,0-4.2,2.1c-5.09,3.41-9.84,9.41-12.66,12.68-1.59,1.83,1.54,4,3.12,2.15.15-.19.33-.4.51-.59a125.12,125.12,0,0,0-5.58,13.77c-.41,1.19-.79,2.4-1.14,3.62a114.72,114.72,0,0,0-5,36.83c.34,12.11,9.58,8.9,17.92,3.24a78.91,78.91,0,0,0,12-10.19C455,325.64,461.94,300.47,454,285.11Z" transform="translate(0 0)"/><path class="cls-4" d="M249.89,325.89a120.7,120.7,0,0,0-3-37.71c.12.23.27.47.38.68,1.16,2.12,4.67.68,3.5-1.45-1.07-1.93-2.49-4.69-4.18-7.5a36.53,36.53,0,0,0-7.08-8.93,11.75,11.75,0,0,0-3.84-2.26,7.14,7.14,0,0,0-1.74-.38,6.28,6.28,0,0,0-1.37,0c-4.8.43-9.53,5.23-12.31,8.63a26.28,26.28,0,0,0-2.51,3.66c-8.12,14.06-6.13,37,1.58,50,3.57,6,16.58,23.23,23.82,19.49,1.71-.86,3.09-2.89,4-6.48A115.24,115.24,0,0,0,249.89,325.89Z" transform="translate(0 0)"/><path class="cls-7" d="M391.34,296.61a36.78,36.78,0,0,0,1.06-11.39,10.44,10.44,0,0,0-1.94-5.11c-3.38-4.13-8-.67-9.35,3.1-1.69,4.89-2.4,15.8,2.08,18.71S390.06,301.49,391.34,296.61Z" transform="translate(0 0)"/><path class="cls-7" d="M292.6,294.11a35.89,35.89,0,0,0,.17-11.17,10.16,10.16,0,0,0-2.28-4.84c-3.61-3.76-7.9,0-8.88,3.73-1.27,4.9-1.12,15.58,3.46,18.07C289.81,302.48,291.73,299,292.6,294.11Z" transform="translate(0 0)"/><path class="cls-8" d="M443.47,318.43c0-4.1-3.29-6.92-3.77-10.8-.55-4.49,2.06-11.43,2.85-15.82.44-2.4-3.33-2.85-3.76-.46-.88,4.92-3.71,12.39-2.94,17.43a10.22,10.22,0,0,0,.88,2.53q1.22,2,2.28,4.14.47,8.19-5.32,7.87c-2.43.24-1.86,4,.56,3.75C439.36,326.56,443.5,324.14,443.47,318.43Z" transform="translate(0 0)"/><path class="cls-8" d="M236.73,325.66c-9.12-6.27-1.58-12.3-.41-19.56,1-5.87-2-11.83-1.57-17.81.15-2.4-3.58-3.07-3.73-.64-.29,4.44.54,8.36,1.15,12.75.86,6.16-2.19,8.86-3.55,14.4s1.14,10.64,5.67,13.75C236.28,329.92,238.74,327,236.73,325.66Z" transform="translate(0 0)"/><path class="cls-8" d="M334.16,359.92c-5.41-2.4-12.64-5.8-15.92-11.06-5.7-9.15,1.59-14.94,5.64-21.39a99.14,99.14,0,0,0,12-28.7c.59-2.36-3.14-3-3.73-.65a94.93,94.93,0,0,1-10.82,26.37c-3,4.9-8.46,9.81-9.34,15.74-1.71,11.5,11.81,19.23,20.58,23.12C334.78,364.34,336.39,360.91,334.16,359.92Z" transform="translate(0 0)"/><path class="cls-8" d="M334.72,381.23c-12.38-.11-36.49-7.79-36.49-7.79s12.26,13.33,22.46,18.3C328,395.31,337.38,397,345,394c9.48-3.8,23.91-20.36,23.91-20.36S347,381.34,334.72,381.23Z" transform="translate(0 0)"/><path class="cls-5" d="M299.81,245.76a54.55,54.55,0,0,0-25.4,2.64,65,65,0,0,0-12.71,5.84l-.88.52c-3,1.73-9.11,5.34-8.42,8.49.19.86,1.11,1.35,1.94,1.65s1.49.5,2.24.71a36.43,36.43,0,0,0,13.48.73c10.56-1.17,20.49-3.91,31.16-3.07,5.11.43,16.47,1.66,17.08-5.9C319,249.07,305.74,246.59,299.81,245.76Z" transform="translate(0 0)"/><path class="cls-5" d="M402.51,247.06a54.81,54.81,0,0,0-25.45-2.31c-5.9.91-19.12,3.56-18.34,11.84.92,9.5,19,4.93,24.29,5.12,8.11.31,16,2.46,24.07,3.26,4.61.45,13.42,1.63,16.88-2.41C428.41,257.38,406,248.22,402.51,247.06Z" transform="translate(0 0)"/><path class="cls-5" d="M447.46,241.82c.54-14.9-1.32-29.29-8.21-42.66-9.12-17.64-25-33.67-43.35-43.69-1.85-1-3.7-2-5.58-2.85a85.71,85.71,0,0,0-23.41-7.2,65.24,65.24,0,0,0-16.68-.23c-2.32.28-4.64.62-6.93,1.05a183.63,183.63,0,0,0-24,6.82,387.87,387.87,0,0,0-50.64,21.13c-7.11,3.57-15,7-20.88,12.53s-9.57,13.22-13.42,20.09c-3.67,6.55-8.46,13.79-9.86,21.43a26.36,26.36,0,0,0-.34,2.78c-.64,9.38,9.54,17.39,7.55,26.21a1.58,1.58,0,0,0-1.16,1.86c.33,2.17.65,6.26,1.93,9.27a5.72,5.72,0,0,0,3.09,3.47l0,0a3.55,3.55,0,0,0,3.81-.88c1.6-1.49,2.53-4.18,3.11-5.88,3.06-9,3.42-18.7,4.16-28.07a2.66,2.66,0,0,1,0-.28A24.34,24.34,0,0,0,260.24,230a9.88,9.88,0,0,0,.78-.81,36,36,0,0,0,4.8-6.3c1.74-2.87,2.93-9.51,5.36-11.68.75-.7,10.55-2.35,11.4-2.28,2.35.18,4.88,1.35,7.29,1.65a28.93,28.93,0,0,0,10.69-.48c6.15-1.57,9.58-5,13.35-9.8,2-2.47,4.52-6.1,7.76-7.21,2.07-.7,5.69.23,8,.37a50.09,50.09,0,0,0,11.67-.25c9.89-1.72,15.72-9,19.8-17.61,11.11,2.42,22.8,8.94,32.83,13.29a326.21,326.21,0,0,1,34.71,17.43,1.65,1.65,0,0,0,.8.25l-.23,58.47c0,2.65-.45,12,2,16.62a5.31,5.31,0,0,0,1.75,2.09c1,.68,10.32-11.53,11-14.81A152.07,152.07,0,0,0,447.46,241.82Z" transform="translate(0 0)"/><path class="cls-8" d="M255,312.57a4.41,4.41,0,0,0-3.08,0c-2.28.85-1,4.4,1.33,3.55,0,0,.09-.11.13-.09a2,2,0,0,0,2.52-.91A1.9,1.9,0,0,0,255,312.57Z" transform="translate(0 0)"/><path class="cls-8" d="M264.7,336.85a1.83,1.83,0,0,0-2.35,0,1.88,1.88,0,0,0-2.24,1,1.91,1.91,0,0,0,.91,2.52,3.47,3.47,0,0,0,3.91-.82A1.9,1.9,0,0,0,264.7,336.85Z" transform="translate(0 0)"/><path class="cls-8" d="M274.33,327.36l-1.24-.22c-2.4-.41-3,3.32-.65,3.74l1.25.21A1.89,1.89,0,0,0,274.33,327.36Z" transform="translate(0 0)"/><path class="cls-8" d="M293.5,314.66l-1.24-.22a1.9,1.9,0,0,0-.65,3.74l1.24.21A1.89,1.89,0,0,0,293.5,314.66Z" transform="translate(0 0)"/><path class="cls-8" d="M293.46,329.68l-.57-.42c-1.95-1.45-4.4,1.44-2.44,2.9l.57.41C293,334,295.42,331.13,293.46,329.68Z" transform="translate(0 0)"/><path class="cls-8" d="M267.78,311.5l-.62-.11a1.89,1.89,0,0,0-.64,3.73l.62.11C269.54,315.64,270.19,311.91,267.78,311.5Z" transform="translate(0 0)"/><path class="cls-8" d="M402.17,317.75l-1.24-.22c-2.4-.41-3.05,3.32-.64,3.73l1.24.22C403.93,321.89,404.58,318.16,402.17,317.75Z" transform="translate(0 0)"/><path class="cls-8" d="M417.42,311.09l-.63-.11a1.9,1.9,0,0,0-.64,3.74l.62.1A1.89,1.89,0,0,0,417.42,311.09Z" transform="translate(0 0)"/><path class="cls-8" d="M383.27,312.45a4.76,4.76,0,0,0-3.25-1c-2.43.14-2.06,3.91.37,3.77a.6.6,0,0,1,.44.12C382.78,316.8,385.23,313.91,383.27,312.45Z" transform="translate(0 0)"/><path class="cls-8" d="M387,329.54l-1.25-.22c-2.4-.41-3.05,3.32-.64,3.73l1.24.22C388.76,333.68,389.41,330,387,329.54Z" transform="translate(0 0)"/><path class="cls-8" d="M405,338.72l-.93-.16c-2.4-.41-3,3.32-.64,3.73l.93.16C406.71,342.87,407.36,339.14,405,338.72Z" transform="translate(0 0)"/><path class="cls-8" d="M415.23,329.29l-1.24-.22c-2.4-.41-3.05,3.32-.65,3.74l1.25.21A1.89,1.89,0,0,0,415.23,329.29Z" transform="translate(0 0)"/><path class="cls-8" d="M371.77,326.9l-.93-.16c-2.41-.41-3,3.32-.65,3.73l.93.16A1.89,1.89,0,0,0,371.77,326.9Z" transform="translate(0 0)"/><path class="cls-6" d="M258.45,230.43l-1.29.56c-.87.37-1.74.72-2.64,1l-1.33.47q-1.71.57-3.48,1a8.08,8.08,0,0,1-1,.23c-1,.21-2,.4-3.06.51-.34.06-.67.08-1,.11l-1.05,0a17,17,0,0,1-1.89,0c-.77,0-1.53-.05-2.3-.13a15.23,15.23,0,0,1-1.87-.32,3.68,3.68,0,0,1-.57-.15,2,2,0,0,1-.33-.08l-.35-.12c-4-1.29-7.8-4-11.75-5.39a26.36,26.36,0,0,0-.34,2.78c-.64,9.38,9.54,17.39,7.55,26.21a1.58,1.58,0,0,0-1.16,1.86c.33,2.17.65,6.26,1.93,9.27a5.72,5.72,0,0,0,3.09,3.47l0,0a3.55,3.55,0,0,0,3.81-.88c1.6-1.49,2.53-4.18,3.11-5.88,3.06-9,3.42-18.7,4.16-28.07a2.66,2.66,0,0,1,0-.28A24.34,24.34,0,0,0,260.24,230a9.88,9.88,0,0,0,.78-.81C260.18,229.63,259.32,230,258.45,230.43Z" transform="translate(0 0)"/><path class="cls-6" d="M410.63,127.45c-2.82,3.3-3.94,6.69-5.17,10.77-1.3,4.29-2.39,9.15-6.4,12-3.47,2.44-7.16,1.82-10.88,2.91a18.26,18.26,0,0,0-7.75,4.32c-5.76,5.48-3.68,14.62-16.74,10.55-2.33-.72-3.07,3.41-.65,3.74,4.22.56,10.34,1.63,13.95-1.3,2.52-2,2.76-6.25,4.65-8.7,3.39-4.42,8.13-4.64,13-5.9,14.37-3.71,10.74-16.4,18.86-25.92C415.11,128,412.21,125.59,410.63,127.45Z" transform="translate(0 0)"/><path class="cls-6" d="M352.87,146.47c-10.09-4.95-20.87-9.33-32.32-9.07-11.75.27-18.15,5.58-27.26,11.94-7.31,5.11-13.09,1.7-20.85,1.3a34.48,34.48,0,0,0-14.12,2.48c-8.74,3.33-17.36,8.72-19.83,18.15-.62,2.35,3.11,3,3.73.64,3.47-13.22,22.58-18.84,34.29-16.89,6.53,1.08,11,2.49,17-1.18,8.39-5.19,13.7-11.49,24.43-12.51,11.76-1.11,23,3.5,33.33,8.57C353.45,151,355.06,147.54,352.87,146.47Z" transform="translate(0 0)"/><path class="cls-6" d="M281.16,134.56c-13-10.61-36-7-48.44,3.33-1.86,1.55.3,4.65,2.19,3.1,11-9.11,32.3-12.92,43.81-3.53C280.61,139,283.05,136.1,281.16,134.56Z" transform="translate(0 0)"/><path class="cls-8" d="M376.76,437.69c-2.67-.65-8.22,2-10.88,2.92-5.55,2-9.9,4-15.95,4.45-9.87.75-20.69,2-30.5.34-20-3.36-35.33-17.58-48.83-31.88-.55-.58-1.11-1.15-1.64-1.75-.4,12-.59,24-1,36a105,105,0,0,1-3.45,23.9c1.15,0,2.31,0,3.42,0,7.6.23,12.56,2.55,19.34,5.38,6,2.54,10.82,1.79,16.6-1,6.37-3.07,9.67-5.46,17.32-4.69,3.47.35,6.91,1.5,10.43,1.45,9-.15,13.22-6.68,20.09-11.42,8.34-5.78,15.71-9.35,21.39-18.13a.2.2,0,0,0,.06-.12C373.91,442,378.2,438.06,376.76,437.69Z" transform="translate(0 0)"/><path class="cls-3" d="M235.05,493s18.92-30.7,22.54-31.76,53.3,38.47,55.49,45.24S329,566.71,329,566.71s14.85-61,17.37-63.93S408.72,458.06,415.7,462s22.85,44.38,22.85,44.38-91.53,89.05-93.1,88.78-84.38-46.53-87-51S235.05,493,235.05,493Z" transform="translate(0 0)"/><path class="cls-9" d="M653.72,551.8q-29-12.63-58.24-24.52c-10.8-4.38-22.58-9.25-34.21-12.5s-23.52-3.35-35-6.4c-9-2.36-17.4-6.3-25.78-10.15-27.58-12.72-55.43-20.58-84.22-6.1-15.12,7.58-26.75,20.24-39.7,30.82a306.23,306.23,0,0,1-47.86,32q-24.1-18.72-48.21-37.47l-24.91-19.36c-5.73-4.46-12.08-11.15-19.38-13-13.18-3.26-31.09,5.12-42.95,10-16.6,6.75-32.86,14.76-50.7,17.79s-35.81,2.63-53.49,6.6a208.24,208.24,0,0,0-27.44,8.26c-6.35,2.35-12.62,5-18.79,7.87C32.24,540.54,22,546.09,12,552c8.49,11.18,10,27.83,2.67,39.88-.46.75-1.24,2.88-2.05,4.34-.11.39-.24.77-.34,1.16-.05.23-.11.47-.16.71-.07,1.56-.54,4.08-.56,4.63A125.76,125.76,0,0,0,12,616.06c0,.07,0,.12,0,.18.31,1.75.59,3.51.93,5.26a259,259,0,0,0,9.54,33.94H608.2A256.17,256.17,0,0,1,639.44,616c4.57-4.76,9.49-9.15,14.28-13.68Z" transform="translate(0 0)"/><path class="cls-3" d="M239.26,486s26.85,84,35.73,85.21,36.4-37.43,36.4-37.43-26.49-35.52-29.69-36.41S239.26,486,239.26,486Z" transform="translate(0 0)"/><path class="cls-3" d="M343.82,529.59s16,41.08,22.95,41.79,63.89-84.73,63.89-84.73-19.87-.65-24,1.67S343.82,529.59,343.82,529.59Z" transform="translate(0 0)"/><path class="cls-10" d="M353.48,564.29c-7.68,7.5-16.34,19.75-27.78,14.55-8.66-3.93-21.23-9-26.22-17.42-1.3-2.2-4.55.1-3.25,2.3,3.16,5.34,8.55,8.35,13.78,11.44,6.06,3.58,13.9,9.06,20.88,10.1,9.66,1.43,19.42-12.33,25.63-18.41C358.36,565.06,355.3,562.51,353.48,564.29Z" transform="translate(0 0)"/><path class="cls-11" d="M311.17,522.63l-4,13.39c-.74,2.45,3.19,3.11,3.91.68q2-6.71,4-13.4C315.82,520.86,311.9,520.2,311.17,522.63Z" transform="translate(0 0)"/><path class="cls-11" d="M351.09,533.88a40.57,40.57,0,0,1-2.24-13.37c0-2.55-4-2.15-4,.39a43.68,43.68,0,0,0,2.48,14.37C348.21,537.69,351.94,536.3,351.09,533.88Z" transform="translate(0 0)"/></g></g></g></svg>