<svg xmlns="http://www.w3.org/2000/svg" xmlns:xlink="http://www.w3.org/1999/xlink" viewBox="0 0 655.89 656.05"><defs><style>.cls-1{fill:none;}.cls-2{clip-path:url(#clip-path);}.cls-3{fill:#fff;}.cls-4{fill:#b06d51;}.cls-5{fill:#fea689;}.cls-6{fill:#232c44;}.cls-7{fill:#f2815c;}.cls-8{fill:#8f5238;}.cls-9{fill:#485a7e;}.cls-10{fill:#2c3b59;}</style><clipPath id="clip-path" transform="translate(0 0)"><circle class="cls-1" cx="327.62" cy="327.62" r="327.62"/></clipPath></defs><g id="Layer_2" data-name="Layer 2"><g id="Layer_1-2" data-name="Layer 1"><g class="cls-2"><path class="cls-3" d="M327.62,0C146.68,0,0,146.68,0,327.62,0,504.06,139.49,647.9,314.2,655h26.85c174.71-7.05,314.19-150.89,314.19-327.33C655.24,146.68,508.56,0,327.62,0Z" transform="translate(0 0)"/><path class="cls-4" d="M439.84,255.56c2.24-13.65,4.68-27.38,5.24-41.22.51-12.36-.6-25-5.37-36.52-5.09-12.28-14.13-22.18-23.18-31.67a34.88,34.88,0,0,0,15-8.12,26,26,0,0,0,8.4-18.55c0-3.92-1.29-7-2.74-10.52-1.3-3.19-1.06-5.08-.7-8.43a9.39,9.39,0,0,0-.2-4.62c-2.29-6.39-11-10.52-16.8-12.8a69.48,69.48,0,0,0-16.25-4.06c-2.61-5.27-8.73-8.72-14.84-9.88a35.56,35.56,0,0,0-15,.47c-6.09,1.51-11,5-16.51,7.79-5.72,2.95-12.05,3.35-17.95,5.73a37,37,0,0,0-11.82,7.7c-4.4,4.25-6.9,9.21-8.83,14.44-10.74-2.14-22-2.75-32.65-.67-6,1.18-10.81,4-16,7.17-6.19,3.78-13.18,4.67-19.46,8-4.62,2.46-8,6.41-11.52,10.23-4.93,5.43-10.81,8.76-16.45,13.29s-9.4,10.47-12.33,16.9c-4.44,6.68-7.22,14.71-9.55,22.19-2.57,8.25-4.46,16.68-6.27,25.12s-3.75,16.82-4.37,25.39c-1,13.52,2.2,26.34,10.37,37.07a.8.8,0,0,0,.15.21c.4.51.79,1,1.21,1.53a1.06,1.06,0,0,0,1.71-.15c13.7,6.18,26.82,12.93,39.12,21.72,12.55,9,24.49,18.87,36.31,28.76,23.59,19.76,42.11,44.46,66.5,63.34,8.87,6.87,19.5,16.2,31.62,13.61,11.39-2.43,18.77-13.52,24.61-22.65,15.3-24,24.33-51.28,30.63-78.84C435,283.65,437.54,269.61,439.84,255.56Z" transform="translate(0 0)"/><path class="cls-5" d="M404,349.06c4.16-25,19-135.52,10.7-154.64-6.2-14.2-16.54-20.91-28.35-29.11-2-1.4-4.12-2.88-6.25-4.42-1.68-1.24-3.41-2.55-5.13-3.92-12.1-9.68-28.88-11.24-43.81-11.1-34.64.28-68.34,2.75-98.65,21.31a102.68,102.68,0,0,0-12,8.5c-1.08.88-2.13,1.79-3.14,2.74A61.1,61.1,0,0,0,206,192.14a38.71,38.71,0,0,0-5.23,16.55c-7.2,41.29-2.43,94.91,5.75,135.68,9.06,45.11,31.68,97.74,81.2,107.83a78.77,78.77,0,0,0,25.55,1c41.08-5,69.36-32.36,82.7-71.16A204.23,204.23,0,0,0,404,349.06Z" transform="translate(0 0)"/><path class="cls-5" d="M498.51,510.55c-29.43-8.56-51.34,2.3-77-18.43-7.86-6.34-14.9-16.77-15.52-25.85-.59-8.67-1.09-17.35-1.7-26-2.1-30.2-3.27-60.46-1.51-90.66l.5-.38a74.76,74.76,0,0,0,12.79-12c8.45-10.17,12.15-22.16,12.13-35.31,0-10.43-.47-26-12.12-30.53-8-3.1-17.67,3.46-22.3,10.58-.48-.54-.93-1.1-1.38-1.67a13.86,13.86,0,0,1,2.32-3.76c.84-1-.68-2.25-1.52-1.29-3.23,3.72-4.11,8.16-4.27,13-.22,6.92.26,13.9.26,20.83q0,16.43-.92,32.85-9.39,10-18.69,20.17c-9.91,10.83-20.69,17.58-33.11,25.06s-24.65,15.65-36.39,24.33c-5.69,4.19-30.56-4.29-31.61-14.86-.25-2.55-4.21-2.18-4,.38q5.22,52.69,6.46,105.63c-4.13,3.37-8.5,6.48-12.85,9.44a220.22,220.22,0,0,1-43.93,23.34,2,2,0,0,0-.59,3.38c22.09,17.68,53.11,35.07,77.08,50.11,9.26,5.81,14.4,8.72,25.19,6.21,13.39-3.11,26.66-6.83,39.76-11a556.64,556.64,0,0,0,143.71-70C500.86,513.08,500.07,511,498.51,510.55Z" transform="translate(0 0)"/><path class="cls-6" d="M247.7,303.49a35.62,35.62,0,0,0-.3-11.13,10.07,10.07,0,0,0-2.48-4.72c-3.74-3.6-7.86.29-8.68,4.09-1.06,4.93-.46,15.56,4.2,17.85C245.28,312,247,308.36,247.7,303.49Z" transform="translate(0 0)"/><path class="cls-6" d="M351.83,296.76a35.55,35.55,0,0,0-.31-11.13,10,10,0,0,0-2.47-4.72c-3.75-3.6-7.86.29-8.68,4.09-1.07,4.93-.47,15.56,4.2,17.85C349.4,305.22,351.16,301.63,351.83,296.76Z" transform="translate(0 0)"/><path class="cls-7" d="M303.46,358.84c-6.5,2.29-20.44,5.66-25.27-1.71-2.76-4.21.7-18.58,1.49-23.57,2.24-14.22,5.88-28.15,7.21-42.52.23-2.53-3.68-3.24-3.92-.68-2,21.54-10.69,47.31-9.56,65.42.85,13.66,22.32,10,31.43,6.79C307.26,361.72,305.87,358,303.46,358.84Z" transform="translate(0 0)"/><path class="cls-4" d="M263.81,261.09a5.62,5.62,0,0,0-1.74-.65c-4.78-.95-8.56-1.79-13.38-1.06-6.53,1-14,1.07-20.39,2.79-6.77,1.8-17.21,4-19.46,11.5a2,2,0,0,0,1.06,2.16c6.23,3,11,.66,17.46.17,9.12-.7,18.54-1,27.58-2.05a15.91,15.91,0,0,0,9.84-5.12A5.09,5.09,0,0,0,263.81,261.09Z" transform="translate(0 0)"/><path class="cls-4" d="M317.29,267a15.88,15.88,0,0,0,10.6,3.27c9.07-.64,18.4-2,27.5-2.95,6.48-.68,11.56.73,17.14-3.3a2,2,0,0,0,.66-2.32c-3.57-7-14.23-7.26-21.21-7.82-6.61-.53-14,.72-20.56.93-4.87.15-8.44,1.66-13,3.45a5.5,5.5,0,0,0-1.59.95A5.09,5.09,0,0,0,317.29,267Z" transform="translate(0 0)"/><path class="cls-4" d="M392,373.6c.8-11.11.78-22.26.57-33.4,0-1.43.94-15.9-4.17-10.72-1.55,1.57-1.55,5.06-2,7l-2,9.46c-1.37,6.56-2.65,13.16-4.11,19.7-1.24,5.51-4.13,10-5.83,15.33-1.56,4.8-4.69,8.9-6.34,13.66a66.17,66.17,0,0,1-6.8,14.75c-2.4,3.71-7.06,6.39-10.67,8.74-4.26,2.79-12.72,8.1-17.21,10.46-19.32,10.16-19.9-23.59-23-36.24a1.07,1.07,0,0,0-.19-.09,21.42,21.42,0,0,0-12.49,1.87,1.17,1.17,0,0,0-.53.48,4.35,4.35,0,0,0-1.13.34c.37,2.44,1.44,4.76,2,7.33a24.2,24.2,0,0,1,.26,6c-.17,5.47,1.91,10.92.61,16.3-1.88,7.75-8.23,8.65-15.4,10.25-4.61,1-7.91.62-11.75-2-4.25-3-8.67-2.53-12.93-5.75-1.9-1.44-4-2.19-6-3.4-3.09-1.87-5.36-7.54-7.67-10.3-2.92-3.51-3.41-8.32-5.19-12.39-1.92-4.37-4.24-5.48-8-7.93-4-2.61-3.46-4.34-5.34-8.19-1.06-2.18-4.72-8.57-6.06-10.88-.63-1.09-.87-3.21-1.33-4.42a32.2,32.2,0,0,0-7.44-11.36c-.58-.58-3.08-3.37-3.08-3.37s-1,5.47-.66,7a34.62,34.62,0,0,0,2.1,6.1c1.67,3.86,1.81,9,3.25,13,1.61,4.43.08,10.07,2,14.36,1.84,4,3.29,21.64,4.88,25.75s1.48,8.51,3.84,12.47,2.09,9.65,4.32,13.7c2,3.66,5,5.83,8.4,8.13l.48.32c.27.27.54.56.82.81a52.13,52.13,0,0,1,8,8.11c1.69,2.27,4.68,8.81,7,10.46,3.12,2.22,7,3,9.69,5.82,2.15,2.21,4.17.9,6.83,2.62,5,3.27,10.67,2.95,16.35,2.69,3.85-.17,6.37,1.93,10,2.58a25.41,25.41,0,0,0,10.12-.56c7.45-1.72,21.19,2.76,28.81,1.58,6.15-.95,9.52-2.89,14-7.09,3.17-3,6.28-3,9.93-4.83,2.45-1.2,3.38-3.41,5.08-5.41,2.51-3,11.9-11.59,14.18-14.83a45.69,45.69,0,0,0,5.14-10.21c1.6-4.23,2.86-14.29,3.5-18.71,1-2.69,1.91-5.38,2.69-7.88C393.05,409.84,391.18,384.94,392,373.6Z" transform="translate(0 0)"/><path class="cls-3" d="M337.15,374.11c-4.41-.13-62.06,8-63.77,7.8-.7-.08-1.05.7-.95,1.25.83,5.11,9.28,8.31,13.47,9.76a52.8,52.8,0,0,0,22.65,2.15,51.82,51.82,0,0,0,17.52-5.44,25.45,25.45,0,0,0,12.05-14.26A1,1,0,0,0,337.15,374.11Z" transform="translate(0 0)"/><path class="cls-7" d="M410.64,330.28c-2.52-4.88-2.85-4.85-.37-11.41.32-.84,1.36-1.52,1.58-2.39.75-3,1.08-5.12.13-8.12-1-3.2-4.87-6.18-5.25-9.22-.55-4.28,3.55-12.63,4.77-16.66.74-2.45-3.18-3.11-3.92-.68-1.53,5.05-5.56,12.38-5,17.62.25,2.44,2.24,3.9,3.41,6,5,9-.15,9.61-1.74,15.72-1,3.77,1,7.3,2.71,10.53C408.08,333.91,411.82,332.56,410.64,330.28Z" transform="translate(0 0)"/><path class="cls-8" d="M410.81,137.72c-5.64-4.75-11.16-10.46-17.58-14.17-6.89-4-14.71-3.63-21.67-7.67-12.93-7.5-22.05-13.82-37.8-11.15-2.51.43-2.15,4.39.38,4a38,38,0,0,1,24.75,3.65c5.19,2.75,9.5,6.92,14.88,9.34,6.44,2.9,13.36,2.44,19.4,6.57,5.33,3.64,10.14,8.35,15.07,12.51C410.2,142.42,412.77,139.38,410.81,137.72Z" transform="translate(0 0)"/><path class="cls-3" d="M223.54,519a22.58,22.58,0,0,1,4-1.69,2.29,2.29,0,0,0,1.7.66l.8,0a1.83,1.83,0,0,0,.73-.19c2.48,7.86,8.26,25.43,8.91,27.09q5.84,14.91,13,29.25c9.23,18.44,19.82,37.34,33,53.29,12.45,15.07,28.74,11.54,44.58,3.64,19.35-9.64,38.44-20.08,57.16-30.91,16.94-9.8,33.62-20.76,46.65-35.55,8-9.11,20.45-25.56,12.8-38.4-7.87-13.2-31.37-6.41-43-3.7a152.31,152.31,0,0,0-26.22,8.76c-4.52,2-8.85,4.18-13.77,5-7.74,1.24-15.53-1.79-23.29-2.26-23.57-1.42-48.16,9.78-70.2-3-12.41-7.17-24.88-19.52-39.29-18.25-.25-.17-.5-.35-.77-.5a2,2,0,0,0-2.37.52,7.84,7.84,0,0,0-.51.6,26.7,26.7,0,0,0-6.25,2.44C219,516.92,221.31,520.16,223.54,519Z" transform="translate(0 0)"/><path class="cls-9" d="M651,569.91,608.77,531.6c-25.88-23.51-51-49-81.27-66.86a1.67,1.67,0,0,0-1.11-1.4c-19.17-7.43-46.42-23.41-67-12.15-10,5.48-15.42,15.88-23.1,23.87-10,10.48-23.8,15.08-37.05,20.06-11.19,4.2-21.9,8.83-31,16.79C358,520.86,349.91,532.22,342,543.25a458.62,458.62,0,0,0-31.7,51.37,113,113,0,0,0-2.74-14.23c-4.19-15.58-13.11-27.94-23.36-40.14-11.45-13.63-21.39-27.31-28.7-43.67-5.31-11.9-9.09-26.07-19.38-34.89-9.2-7.9-20.64-7.34-31.62-3.78-7.26,2.37-14.17,5.66-21.55,7.69s-14.82,2.92-22.1,5c-17.93,5-30.33,19.94-31.19,37.15a161.86,161.86,0,0,0-54.87,15.44,216.94,216.94,0,0,0-28.76,17.31c-13.64,9.45-26.7,19.85-40.45,29.16C3.91,570.77,2.19,571.89.46,573v83h1.1V655H655.89V574.14C654.15,572.69,652.47,571.28,651,569.91Z" transform="translate(0 0)"/><path class="cls-10" d="M542.78,596.47c5.42,9.19,7.9,18,7.2,28.63-.55,8.39-2.22,16.62-2.14,25.06,0,1.61.09,3.2.2,4.79h4.37a124.06,124.06,0,0,1,.75-22.18c1.36-11.92,1.32-22.46-4.21-33.38-6.43-12.71-15.23-23.64-20.37-37.11A123.75,123.75,0,0,1,529.76,472c1-2.37-2.63-4.08-3.6-1.7a128.2,128.2,0,0,0-3.39,87.46C527.38,572,535.25,583.69,542.78,596.47Z" transform="translate(0 0)"/><path class="cls-10" d="M141.73,521.31c15.53,5.15,31.2,10.38,45.59,18.28,17.15,9.42,27.42,22.83,40,37.2C238,589,252.57,595.13,265.69,604.16a214.4,214.4,0,0,1,41.25,37.36c.89,1,2.82,1.22,3.42-.3,7.42-18.77,25.94-28.15,42.63-37.42q30.17-16.77,60.13-33.91c18.47-10.62,37.27-21,55.08-32.72,14.63-9.63,27.81-20.92,36-36.65,1.19-2.28-2.41-4-3.59-1.71-9.7,18.59-26.83,30.5-44.31,41.13-19.39,11.79-39.09,23.09-58.81,34.31-18.95,10.79-38.17,21.12-57.05,32-13.19,7.62-25.87,16.5-32.48,30.45a217.94,217.94,0,0,0-35.54-32.65c-15.83-11.49-33.41-18.88-45.93-34.46-9.87-12.28-19.61-23-33.28-31.19-15.49-9.28-32.75-15.06-49.8-20.71C141,516.91,139.31,520.5,141.73,521.31Z" transform="translate(0 0)"/><path class="cls-10" d="M277.15,580.1c-34.95-31.14-52.24-76.57-85.85-109-1.84-1.78-4.4,1.27-2.56,3,33.59,32.37,50.86,77.78,85.85,109C276.5,584.84,279.06,581.8,277.15,580.1Z" transform="translate(0 0)"/><path class="cls-10" d="M421.28,494.89c-8.06,14.38-20.76,25-32.68,36.06l-35.83,33.28c-1.88,1.74,1.18,4.29,3,2.57L394.39,531c11.34-10.53,22.84-20.72,30.49-34.37C426.13,494.36,422.53,492.67,421.28,494.89Z" transform="translate(0 0)"/><path class="cls-6" d="M267.25,655h14.9c1.31-3.35,2.57-6.72,3.73-10.1q1.81-7.77,3-15.69c1.42-9.36,1.28-18.81,1.93-28.22-4.21-.64-10.33-1.5-13.43,1.14-4.35,3.72-2.19,16.44-2.79,20.91A164.29,164.29,0,0,1,267.25,655Z" transform="translate(0 0)"/><path class="cls-6" d="M350.32,621.22c.3-12.61-.78-25.35-1.45-38-4.71,1.36-9.49,2.49-14.29,3.49-1.1,6.71.58,12.93,1.71,19.93,2,12.31-2.89,23.7-4.79,35.68-.67,4.17-1.21,8.37-1.66,12.59h16C347.5,643.73,350,632.54,350.32,621.22Z" transform="translate(0 0)"/><path class="cls-4" d="M424.9,222.17c.06-11.54-3.31-22.61-8.68-32.74-5.2-9.82-12-18.67-19.26-27.05-7.63-8.83-15.2-16.69-26.71-20.11-12.83-3.82-26.5-2.93-39.69-2.31-14.3.67-28.63,1.23-42.92,2.24-7.07.5-14.07,1.44-20.59,4.36-5.56,2.48-10.56,6-15.87,9-10.56,5.89-22.49,9-32.74,15.49-11.34,7.15-16.12,18-20.05,30.36-4.56,14.37-7,29.33-5.41,44.41a1,1,0,0,0,.13.41,1.88,1.88,0,0,1-.06.31,1,1,0,0,0,0,.62.9.9,0,0,0,0,1.08,6.49,6.49,0,0,0,3.33,2.62,1,1,0,0,0,1.18-.26c7.59-9.39,7-22.95,9.54-34.21,1.5-6.58,2.63-16.41,8.83-20.15,4.6-2.77,10.41-2.27,15.55-3a31.54,31.54,0,0,0,11.78-4.61,31.21,31.21,0,0,1,7.33-3.66c4.17-1.16,8.32.38,12.42,1,12.59,2,23.36-1,35.25-4.56,7.68-2.29,14.78-1.14,22.54.09l21.16,3.36q10.57,1.68,21.16,3.36c7.48,1.2,15.83,2.3,19.52,9.9a76.35,76.35,0,0,1,7.7,39.77c-1.07,12.69-2.52,26.07-1.3,38.8.71,7.48,7,10.75,11.43,3.82,1.95-3.07,4.08-3.83,7.69-4.53a9.34,9.34,0,0,0,4.38-1.74c3.45-2.8,4.85-8.52,6.12-12.59A139.65,139.65,0,0,0,424.9,222.17Z" transform="translate(0 0)"/><path class="cls-8" d="M326.4,109.27a43.34,43.34,0,0,0-25.54,6.82c-9.63,6.3-14,17.33-25.27,21.34-16,5.69-27.78,16.15-26.19,34.6.22,2.55,4.18,2.18,4-.38-.89-10.29,3.38-20.52,12.41-26,6-3.67,13.38-4.2,19.23-8.19,6.36-4.34,9.65-11.74,15.8-16.43,7.57-5.77,16.59-8.08,26-7.76C329.33,113.32,328.93,109.36,326.4,109.27Z" transform="translate(0 0)"/><path class="cls-8" d="M273.69,149.18c-6.9,7.19-11.64,15.73-11.88,25.84-.06,2.55,3.9,2.16,4-.38.21-9,4.89-16.57,11-22.9C278.5,149.89,275.45,147.33,273.69,149.18Z" transform="translate(0 0)"/><path class="cls-8" d="M414.77,156.37c-.07-2.56-4-2.18-4,.38.52,19.15,1.35,37.29-15.05,50.42-2,1.6.28,4.86,2.29,3.26C415.69,196.31,415.33,177.24,414.77,156.37Z" transform="translate(0 0)"/><path class="cls-8" d="M406.27,142.43c0-2.56-4-2.17-3.95.38,0,13-.35,25.77-7.39,37.16-1.35,2.17,2.26,3.85,3.59,1.7C405.92,169.7,406.31,156.1,406.27,142.43Z" transform="translate(0 0)"/></g></g></g></svg>